<?xml version="1.0" encoding="iso-8859-1"?>
<!-- Generator: Adobe Illustrator 19.0.0, SVG Export Plug-In . SVG Version: 6.00 Build 0)  -->
<svg version="1.1" id="Layer_1" xmlns="http://www.w3.org/2000/svg" xmlns:xlink="http://www.w3.org/1999/xlink" x="0px" y="0px"
	 viewBox="0 0 448 448" style="enable-background:new 0 0 448 448;" xml:space="preserve">
<path style="fill:#D9CDC1;" d="M403.037,147c-5.5,0-10.7,2.2-14.7,6.3c-1.2,1.2-1.8,1.2-2.2,1.2l0,0c-0.2,0-0.5,0-0.8-0.1
	c-0.9-0.4-2-1.5-2.3-2.3c-3.9-12.4-15.3-21.1-28-21.1h-14.3l33.8,58h28.5c11.6,0,21-9.4,21-21S414.537,147,403.037,147z"/>
<path style="fill:#FFF8EF;" d="M299.537,81.6l36,62.4h-33.6l4.8-13.6c0.8-2.4,0-4.8-0.8-7.2c-2.4-2.4-4.8-3.2-7.2-3.2h-17.6
	L299.537,81.6z"/>
<path style="fill:#67BC34;" d="M378.737,256v-16h-24v16H378.737z M243.537,200.8l30.4-64.8h13.6l-4.8,13.6c-0.8,2.4,0,4.8,0.8,7.2
	c1.6,2.4,4,3.2,6.4,3.2h54.4l60,104h-132.8l-4-8h71.2v-16h-77.6L243.537,200.8z"/>
<path style="fill:#FFF8EF;" d="M238.037,82.1c-2.1-9.4-10.3-15.9-20.1-15.9c-8.3,0-15.7,5-19,12.6l-0.1,0.2l-0.1,0.2
	c-0.2,0.6-0.7,1.2-1.1,1.4c-1.5,0-3.1-0.6-3.4-0.9l-2.4-2.4l-8.1,5.7l7.2,15.2l4.5,1.3h24.8c2.8,0,5.1-1.2,7-2.1l0.7-0.4l0.4-0.4
	c0,0,0,0,0.1,0c0.6-0.3,1.5-0.8,2.5-1.7l1.1-1.1c2.5-1.6,3.7-4,4.6-5.8l0.5-1.1v-0.4c0.3-0.7,0.8-1.8,0.8-3.2v-0.5L238.037,82.1z"/>
<path style="fill:#D9CDC1;" d="M234.737,80c0,1.6,0,2.4-0.8,4c-1.6-7.2-8-12-15.2-12c-6.4,0-12,4-14.4,9.6c-0.8,2.4-3.2,4-5.6,4.8
	c-2.4,0.8-5.6,0-7.2-2.4l-1.6-1.6l-0.8-0.8l-6.4-9.4l4-0.2c0.8,0,0.8,0,0.8,0s0.8,0.8,1.6,1.6l1.6,1.6c1.6,1.6,4.8,2.4,7.2,2.4
	s4.8-2.4,5.6-4.8c2.4-5.6,8-9.6,14.4-9.6C227.537,64,234.737,71.2,234.737,80z"/>
<path style="fill:#B37D4D;" d="M226.737,432c-29.6,0-58.4-6.4-85.6-16.8c8-1.6,13.6-5.6,17.6-8c5.6-4,10.4-6.4,20-6.4
	s13.6,3.2,19.2,6.4c6.4,4,14.4,9.6,28,9.6c14.4,0,22.4-5.6,28.8-9.6c5.6-4,9.6-6.4,19.2-6.4s14.4,3.2,19.2,6.4
	c4.8,3.2,9.6,6.4,17.6,8C285.137,425.6,256.337,432,226.737,432z"/>
<path style="fill:#FFF8EF;" d="M146.737,27.2l38.4,84.8h-35.2l4.8-13.6c0.8-2.4,0-4.8-0.8-7.2c-2.4-2.4-4.8-3.2-7.2-3.2h-28.8
	L146.737,27.2z"/>
<path style="fill:#7AC943;" d="M226.737,352c-13.6,0-20-3.2-27.2-7.2c-8-4-16.8-8.8-34.4-8.8s-26.4,4.8-34.4,8.8
	c-7.2,4-13.6,7.2-27.2,7.2s-19.2-3.2-27.2-7.2s-16.8-8.8-34.4-8.8c-5.6-8-10.4-16-14.4-24h396.8c-4,8-9.6,16-14.4,24
	c-16.8,0-26.4,4.8-34.4,8.8c-6.4,4-12.8,7.2-26.4,7.2s-20-3.2-27.2-7.2c-8-4-16.8-8.8-34.4-8.8s-26.4,4.8-34.4,8.8
	C246.737,348.8,240.337,352,226.737,352z"/>
<path style="fill:#FFF8EF;" d="M106.737,192c0,0.8-0.8,2.4-0.8,3.2C105.937,194.4,105.937,192.8,106.737,192z"/>
<path style="fill:#2FB4C2;" d="M226.737,368c17.6,0,26.4-4.8,34.4-8.8c7.2-4,13.6-7.2,27.2-7.2s20,3.2,27.2,7.2
	c8,4,16.8,8.8,34.4,8.8s26.4-4.8,34.4-8.8c4-2.4,8-4,12.8-5.6c-9.6,11.2-20.8,21.6-32,30.4c-10.4,1.6-16.8,5.6-22.4,8.8
	c-5.6,4-10.4,7.2-20,7.2s-14.4-3.2-20-6.4c-5.6-4-13.6-9.6-28-9.6s-22.4,5.6-28.8,9.6c-5.6,3.2-9.6,6.4-19.2,6.4s-13.6-3.2-19.2-6.4
	c-6.4-4-14.4-9.6-28.8-9.6s-22.4,5.6-28.8,9.6c-5.6,3.2-9.6,6.4-19.2,6.4s-14.4-3.2-20-6.4c-4.8-3.2-11.2-8-22.4-8.8
	c-12-8.8-22.4-19.2-32-30.4c4.8,1.6,8.8,3.2,12.8,5.6c8,4,16.8,8.8,34.4,8.8s26.4-4.8,34.4-8.8c7.2-4,13.6-7.2,27.2-7.2
	s20,3.2,27.2,7.2C200.337,363.2,209.137,368,226.737,368z"/>
<g>
	<path style="fill:#FFF8EF;" d="M111.537,190.7c-3.1-11.4-13.6-19.7-24.8-19.7c-6.9,0-12.4,2.8-15.6,5.6c-0.4,0.2-0.8,0.3-1,0.3
		l-0.6-0.3h-1.2c-0.3,0-1.2-0.9-1.8-1.5c-5.9-7.7-14.6-12.1-23.8-12.1c-13.7,0-25.6,9.5-29.6,23.6l-0.2,0.7v0.7
		c0,1.5,0.5,2.6,0.9,3.3c0.2,1,0.5,1.9,0.8,2.4c0.1,1,0.5,1.7,0.7,2.3v1.3l1.3,1.3c0,0,0,0,0,0.1c0.2,0.4,0.5,1.1,1.1,1.8
		c0.9,1.7,2.1,3.8,4.3,5.2l2.7,2.7c0.4,0.4,1.4,1.3,2.7,1.8c1.1,0.8,2.2,1.3,4,1.3h0.8c0.7,0.3,1.8,0.8,3.2,0.8
		c0.2,0,0.8,0.2,1.2,0.3c1,0.2,2.2,0.5,3.6,0.5h48c6.4,0,12.4-2.3,16.3-6.3l2.4-2.4c1-1,1.5-1.9,1.7-2.5c0,0,0,0,0-0.1l1.3-1.3v-1.3
		c0.3-0.7,0.8-1.8,0.8-3.2v-0.4c0-0.1,0.1-0.3,0.1-0.4c0.3-0.9,0.7-2,0.7-3.2v-0.7L111.537,190.7z"/>
	<path style="fill:#FFF8EF;" d="M301.637,126c0.4,1.2,0.6,2.2,0.4,2.7l-7.2,20.3h49.3l-45.1-78.1l-25.8,54.1h25.5
		C299.537,125,300.437,125.1,301.637,126z"/>
</g>
<path style="fill:#7AC943;" d="M333.737,245v6h-74.3l9,18h144.5l-65.8-114h-57.3c-1.1,0-1.6-0.3-1.9-0.6c-0.4-1.3-0.8-2.5-0.6-3.2
	l7.2-20.3h-23.8l-32.7,69.8l19.9,44.2h75.8V245z M359.737,245h14v6h-14V245z"/>
<path style="fill:#B37D4D;" d="M295.937,403c-5.1-3.4-10.9-7.2-22-7.2c-10.9,0-16,3-22,7.2l-1,0.6c-6,3.8-12.9,8.1-25,8.1
	c-11.3,0-18.1-4.3-24.1-8.1l-1.2-0.8l-0.2-0.1c-0.7-0.4-1.4-0.8-2-1.2c-4.9-2.9-9.9-5.9-19.7-5.9c-10.5,0-16.3,2.6-22.7,7.2
	c-0.5,0.3-1,0.6-1.6,1c-3.7,2.3-8.2,5.1-14.2,6.3l-17,3.4l16.2,6.2c29.7,11.4,59.1,17.1,87.4,17.1c28.5,0,58.2-5.9,85.9-17.2
	l15.4-6.3l-16.3-3.3C304.637,408.9,300.637,406.2,295.937,403z"/>
<path style="fill:#FFF8EF;" d="M149.637,94c0.4,1.2,0.6,2.2,0.4,2.7l-7.2,20.3h50l-46-101.7l-36.8,77.7h36.7
	C147.537,93,148.437,93.1,149.637,94z"/>
<path style="fill:#7AC943;" d="M19.437,307l3.6,7.2c4.1,8.2,9.1,16.5,14.8,24.6l1.5,2.1h2.6c15.7,0,23.6,3.9,31.2,7.8l2.3,1.1
	c7.6,3.8,14.1,7.1,28.2,7.1c14.3,0,21.6-3.4,29.5-7.8l0.9-0.5c7.6-3.8,15.5-7.8,31.2-7.8s23.6,3.9,31.2,7.8l0.9,0.5
	c7.9,4.4,15.2,7.8,29.5,7.8c14.9,0,22.2-3.7,28.8-7.8l0.8-0.4c7.6-3.8,15.5-7.8,31.2-7.8s23.6,3.9,31.2,7.8l0.9,0.5
	c7.9,4.4,15.2,7.8,29.5,7.8c14.9,0,22.2-3.7,28.8-7.8c7.7-3.9,16.5-8.2,32-8.2h2.8l1.5-2.4c1.6-2.6,3.3-5.3,4.9-7.9
	c3.4-5.3,6.9-10.9,9.7-16.4l3.6-7.2h-413.1V307z"/>
<path style="fill:#2FB4C2;" d="M381.937,354.8l-0.8,0.4c-7.6,3.8-15.5,7.8-31.2,7.8s-23.6-3.9-31.2-7.8l-0.9-0.5
	c-7.9-4.4-15.2-7.8-29.5-7.8s-21.6,3.4-29.5,7.8l-0.9,0.5c-7.6,3.8-15.5,7.8-31.2,7.8c-14.3,0-22.3-3.3-29.3-6.3
	c-1-0.4-2-0.8-2.9-1.2c-7.9-4.4-15.1-7.7-29.4-7.7c-14.3,0-21.6,3.4-29.5,7.8l-0.9,0.4c-7.6,3.8-15.5,7.8-31.2,7.8
	s-23.6-3.9-31.2-7.8l-0.8-0.4c-4.7-2.8-9.4-4.5-13.6-6l-17.1-5.6l11.7,13.7c11,12.9,21.8,23.1,32.8,31.2l1.2,0.9l1.4,0.1
	c9.1,0.7,14.6,4.3,19,7.3l1.2,0.8l1.3,0.8c5.4,3.1,11.1,6.4,21.3,6.4c9.8,0,14.8-3,19.7-5.9c0.7-0.4,1.3-0.8,2-1.2h0.1l1.2-0.8
	c6-3.8,12.9-8.1,25-8.1s19,4.3,25,8.1l1.1,0.7l0.2,0.1c0.7,0.4,1.4,0.8,2,1.2c4.9,2.9,9.9,5.9,19.7,5.9s14.8-3,19.7-5.9
	c0.7-0.4,1.3-0.8,2-1.2h0.1l1.2-0.8c6-3.8,12.9-8.1,25-8.1c13,0,20,5,25.1,8.7l0.2,0.1l1.4,0.8c5.4,3.1,11.1,6.4,21.3,6.4
	c11.4,0,17.4-4.2,22.7-8l0.9-0.5c5.3-3,10.7-6.2,19.5-7.5l1.3-0.2l1-0.8c12.2-9.6,23.5-20.3,32.7-31.1l11.8-13.7l-17.1,5.7
	C391.237,350.3,386.637,352,381.937,354.8z"/>
<g>
	<path style="fill:#7AC943;" d="M194.737,123h-56.8c-1.1,0-1.6-0.3-1.9-0.6c-0.4-1.3-0.8-2.5-0.6-3.2l7.2-20.3h-35.9l-27.1,58h7.9
		c16.7,0,30.2,13.9,30.2,31c0,17.4-13.6,31-31,31h-42l-10.8,18h139.8v6h-142.6l-15.6,26h245.4L194.737,123z M199.737,243v-6h14v6
		H199.737z"/>
	<path style="fill:#7AC943;" d="M194.737,232v16h24v-16H194.737z M86.737,224c20,0,36-16,36-36s-16-36-35.2-36l22.4-48h25.6
		l-4.8,13.6c-0.8,2.4,0,4.8,0.8,7.2c1.6,2.4,4,3.2,6.4,3.2h53.6l61.6,136h-226.4h-2.4l9.6-16h144.8v-16h-136l4.8-8h35.2
		c0.8,0,0.8,0,1.6,0C85.137,224,85.937,224,86.737,224z"/>
</g>
<g>
	<path style="fill:#D9CDC1;" d="M22.737,196.8c0.8,1.6,2.4,3.2,3.2,4C24.337,200,23.537,198.4,22.737,196.8z"/>
	<path style="fill:#D9CDC1;" d="M21.137,194.4c0.8,0.8,0.8,1.6,1.6,2.4C21.937,196,21.937,195.2,21.137,194.4z"/>
	<path style="fill:#D9CDC1;" d="M19.537,190.4c0,0.8,0,1.6,0.8,2.4C20.337,191.2,19.537,191.2,19.537,190.4z"/>
	<path style="fill:#D9CDC1;" d="M41.537,157c8,0,15.2,4.6,20,11c1.6,1.6,3.1,3.8,5.5,3.8s3.2-0.1,4.8-1.7c2.4-2.4,8.8-3.2,14.4-3.2
		c11.2,0,20,8.8,20,20c0,1.6,0,2.4,0,4c-1.6-8.8-9.6-16-20-16c-5.6,0-9.6,2.4-12.8,4.8c-1.6,1.6-4,2.4-6.4,1.6
		c-2.4-0.8-4-1.6-5.6-3.2c-4.8-6.4-12-10.4-20-10.4c-12,0-21.6,8.8-23.2,20c-0.8-1.6-0.8-2.4-0.8-4
		C17.537,170.9,27.937,157,41.537,157z"/>
</g>
<g>
	<polygon style="fill:#67BC34;" points="170.737,128 195.537,232 218.737,232 218.737,248 198.737,248 202.737,264 254.737,264 
		192.337,128 	"/>
	<polygon style="fill:#67BC34;" points="199.537,123 168.437,123 195.637,237 217.737,237 217.737,243 196.337,243 202.837,269 
		266.537,269 	"/>
</g>
<polygon style="fill:#D9CDC1;" points="156.737,22 144.037,18 167.537,117 196.937,117 "/>
<g>
	<path style="fill:#67BC34;" d="M353.037,155h-32.1l35.1,114h62.8L353.037,155z M364.737,251v-6h14v6H364.737z"/>
	<path style="fill:#67BC34;" d="M322.737,160l32,104h50.4l-60-104H322.737z M354.737,240h24v16h-24V240z"/>
</g>
<polygon style="fill:#D9CDC1;" points="299.537,81.6 317.937,144 335.537,144 "/>
<path style="fill:#FFF8EF;" d="M420.637,172.2c-2.1-9.4-7.1-16.2-19.6-16.2c-5.2,0-8.4,5.4-14.2,6.9c-7.7,2-10.1-4.5-13-9.8
	c-1.4-2.6-3.2-5-5.3-7.1c-4.4-4.1-10.1-5.8-16-5.8h-9.5l29,50h28.5c9.7,0,18-6.5,20.1-15.9l0.2-1.1L420.637,172.2z"/>
<path style="fill:#42210B;" d="M354.737,240h24v16h-24V240z M194.737,232h24v16h-24V232z M178.737,400c-9.6,0-14.4,3.2-20,6.4
	c-4.8,3.2-9.6,6.4-17.6,8c27.2,11.2,56,17.6,85.6,17.6s58.4-6.4,85.6-16.8c-8-1.6-13.6-5.6-17.6-8c-6.4-4-10.4-7.2-20-7.2
	s-14.4,3.2-19.2,6.4c-6.4,4-14.4,9.6-28.8,9.6s-22.4-5.6-28-9.6C192.337,403.2,188.337,400,178.737,400z M370.737,400
	c-40.8,30.4-91.2,48-144,48s-103.2-17.6-144-48l0,0l0,0c-31.2-24-57.6-55.2-74.4-92.8c-0.8-2.4-0.8-5.6,0.8-8c0.8-1.6,4-3.2,6.4-3.2
	h422.4c2.4,0,5.6,1.6,6.4,4c1.6,2.4,1.6,4.8,0.8,8C428.337,344.8,402.737,376,370.737,400L370.737,400L370.737,400z M226.737,368
	c-17.6,0-26.4-4.8-34.4-8.8c-7.2-4-13.6-7.2-27.2-7.2s-20,3.2-27.2,7.2c-8,4-16.8,8.8-34.4,8.8s-26.4-4.8-34.4-8.8
	c-4-2.4-8-4-12.8-5.6c9.6,11.2,20.8,21.6,32,30.4c10.4,1.6,16.8,5.6,22.4,8.8c5.6,4,10.4,6.4,20,6.4s13.6-3.2,19.2-6.4
	c6.4-4,14.4-9.6,28.8-9.6c14.4,0,22.4,5.6,28,9.6s9.6,6.4,19.2,6.4c9.6,0,14.4-3.2,19.2-6.4c6.4-4,14.4-9.6,28.8-9.6
	s22.4,5.6,28.8,9.6c5.6,4,10.4,6.4,20,6.4s14.4-3.2,19.2-6.4c5.6-3.2,12-8,22.4-8.8c12-8.8,22.4-19.2,32-30.4
	c-4.8,1.6-8.8,3.2-12.8,5.6c-8,4-16.8,8.8-34.4,8.8s-26.4-4.8-34.4-8.8c-7.2-4-13.6-7.2-27.2-7.2s-20,3.2-27.2,7.2
	S244.337,368,226.737,368z M104.337,352c13.6,0,20-3.2,27.2-7.2c8-4,16.8-8.8,34.4-8.8s26.4,4.8,34.4,8.8c7.2,4,13.6,7.2,27.2,7.2
	s20-3.2,27.2-7.2c8-4,16.8-8.8,34.4-8.8s26.4,4.8,34.4,8.8c7.2,4,13.6,7.2,27.2,7.2s20-3.2,27.2-7.2c8-4,16.8-8.8,34.4-8.8
	c5.6-8,10.4-16,14.4-24h-398.4c4.8,8,9.6,16,14.4,24c16.8,0,26.4,4.8,34.4,8.8C84.337,348.8,90.737,352,104.337,352z M305.137,123.2
	c1.6,2.4,1.6,4.8,1.6,7.2l-4.8,13.6h33.6l-36-62.4l-18.4,38.4h17.6C301.137,120,303.537,120.8,305.137,123.2z M402.337,184
	c7.8,0,14.7-5.4,16.1-13c1.9-10.1-5.9-19-15.7-19c-4,0-8.8,1.6-11.2,4.8c-2.4,2.4-4.8,3.2-8,2.4c-2.4-0.8-4.8-3.2-5.6-5.6
	c-3.2-10.4-12.8-17.6-23.2-17.6h-5.6l28,48H402.337z M271.537,264h132.8l-60-104h-53.6c-2.4,0-4.8-0.8-6.4-3.2s-1.6-4.8-1.6-7.2
	l4.8-13.6h-13.6l-30.4,64.8l17.6,39.2h77.6v16h-70.4L271.537,264z M222.637,96.4c3.2-1.3,6.1-3.3,8.3-5.9c7-8.2,3.5-20.7-6.3-24.6
	c-1.9-0.7-3.9-1.1-5.9-1.1c-6.4,0-12,4-14.4,9.6c-0.8,2.4-3.2,4-5.6,4.8c-2.4,0.8-5.6,0-7.2-2.4l-1.6-1.6c-0.8-0.8-1.6-1.6-1.6-1.6
	s0,0-0.8,0h-2.4l4,8.8l7.2,15.2h22.4C220.037,97.3,221.337,96.9,222.637,96.4z M117.937,88h28.8c2.4,0,4.8,0.8,6.4,3.2
	c1.6,2.4,1.6,4.8,1.6,7.2l-4.8,13.6h35.2l-38.4-84.8L117.937,88z M122.737,189.9c-1,19.2-17.3,34.1-36.5,34.1h-1.8
	c-0.8,0-0.8,0-1.6,0h-35.3l-4.8,8h136v16h-144.8l-9.6,16h2.4h228l-61.6-136h-54.4c-2.4,0-4.8-0.8-6.4-3.2c-1.6-2.4-1.6-4.8-1.6-7.2
	l4.8-13.6h-25.6l-22.4,48C107.337,152,123.737,169,122.737,189.9z M32.237,205.8c2.6,1,5.6,1.4,8,1.7c14.5,2,29.5,0.5,44.1,0.5
	c3.2,0,6.2-0.1,9.2-1.2c5.5-2,9.6-6.5,11.2-12.1c3.3-11.9-5-25.4-17.5-26.6c-6.7-0.7-11.3,2-14.9,4.7c-1.6,1.6-4,2.4-6.4,1.6
	c-2.4-0.8-4-1.6-5.6-3.2c-2.4-7.2-9.6-11.2-17.6-11.2c-15,0-27.6,14.9-22.9,29.7c1,3.1,2,5.7,3.9,8.3c1.6,2.3,3.4,4.5,5.6,6.2
	C30.237,204.9,31.237,205.4,32.237,205.8z M195.537,58.4c7.5-7.5,17.1-11.7,27.6-10.1c15.3,2.3,27.2,15.4,27.6,30.9
	c0.4,18-14.1,32.8-32,32.8h-16l32,69.6l56.8-120.8c1.6-2.4,4-4,7.2-4.8c3.2,0,5.6,1.6,7.2,4l34.4,60h14.4c14.4,0,27.2,7.2,34.4,19.2
	c2.6-1.5,5.5-2.4,8.7-2.9c18.9-2.5,36.6,10.9,37.6,30c1,18.4-13.8,33.7-32,33.7h-16l36.8,64h18.5v16h-24h-152h-240h-16
	c-3.2,0-5.6-1.6-7.2-4s-1.6-5.6,0-8l26.4-46.4c-16-4.8-27.2-20-27.2-37.6c0-22.4,17.6-40,40-40c9.6,0,19.2,4,26.4,9.6L139.537,4
	c1.6-2.4,4.8-4,7.2-4c3.2,0,5.6,1.6,7.2,4.8l23.2,51.2h9.6C190.737,56,193.137,56.8,195.537,58.4z"/>
<g>
</g>
<g>
</g>
<g>
</g>
<g>
</g>
<g>
</g>
<g>
</g>
<g>
</g>
<g>
</g>
<g>
</g>
<g>
</g>
<g>
</g>
<g>
</g>
<g>
</g>
<g>
</g>
<g>
</g>
</svg>
