<?xml version="1.0" encoding="UTF-8" standalone="no"?> <svg width="64" height="64" viewBox="0 0 64 64" fill="none" xmlns="http://www.w3.org/2000/svg">
<path d="M61 46.75L59 46C53.842 44.066 48.158 44.066 43 46C37.842 47.934 32.158 47.934 27 46C21.842 44.066 16.158 44.066 11 46L3 49V55H61V46.75Z" fill="#84D2F4"/>
<path d="M53 52C47.842 50.066 42.158 50.066 37 52C31.842 53.934 26.158 53.934 21 52C15.842 50.066 10.158 50.066 5 52L3 52.75V61H61V55L53 52Z" fill="#57B7EB"/>
<path d="M61 57.75L59 57C53.842 55.066 48.158 55.066 43 57C37.842 58.934 32.158 58.934 27 57C21.842 55.066 16.158 55.066 11 57L3 60V61H61V57.75Z" fill="#4891D3"/>
<path d="M32 48H25L23 43L21 48H14L16 37H30L32 48Z" fill="#F8664F"/>
<path d="M32 48H25L23 43H19C18.886 43.3424 18.855 43.707 18.9094 44.0638C18.9638 44.4206 19.1022 44.7593 19.313 45.0522C19.5239 45.3451 19.8013 45.5837 20.1224 45.7485C20.4435 45.9133 20.7991 45.9995 21.16 46H21.8L21 48H14L16 37H30L31.17 43.46C30.2885 43.4134 29.4104 43.3165 28.54 43.17L27.18 42.95C27.5509 43.8338 28.169 44.5917 28.9602 45.1328C29.7513 45.6738 30.6819 45.9749 31.64 46L32 48Z" fill="#CC5144"/>
<path d="M30 22H26V17H20V22H16C14.9391 22 13.9217 22.4214 13.1716 23.1716C12.4214 23.9217 12 24.9391 12 26V41C12 41.5304 12.2107 42.0391 12.5858 42.4142C12.9609 42.7893 13.4696 43 14 43C14.5304 43 15.0391 42.7893 15.4142 42.4142C15.7893 42.0391 16 41.5304 16 41V38H30V32H34V26C34 24.9391 33.5786 23.9217 32.8284 23.1716C32.0783 22.4214 31.0609 22 30 22Z" fill="#F9E109"/>
<path d="M34 27V32H30V38H16V41C16 41.5304 15.7893 42.0391 15.4142 42.4142C15.0391 42.7893 14.5304 43 14 43C13.4696 43 12.9609 42.7893 12.5858 42.4142C12.2107 42.0391 12 41.5304 12 41V26C12 24.9391 12.4214 23.9217 13.1716 23.1716C13.9217 22.4214 14.9391 22 16 22H17V23C17 24.0609 17.4214 25.0783 18.1716 25.8284C18.9217 26.5786 19.9391 27 21 27H34Z" fill="#FCBC04"/>
<path d="M26 17V21.31C25.4955 22.0753 24.822 22.7144 24.0313 23.1781C23.2407 23.6418 22.3541 23.9176 21.4399 23.9843C20.5257 24.051 19.6085 23.9067 18.7589 23.5627C17.9093 23.2186 17.1502 22.684 16.54 22H20V17H26Z" fill="#FCBC04"/>
<path d="M33.992 42C32.6663 41.9997 31.3428 41.8903 30.035 41.673L8 38L12 35L8 32L30.035 28.327C31.3428 28.1097 32.6663 28.0003 33.992 28V28C38.5692 27.9999 43.0516 29.3053 46.913 31.763L52 35L46.913 38.237C43.0516 40.6947 38.5692 42.0001 33.992 42V42Z" fill="#57B7EB"/>
<path d="M52 35L46.91 38.24C43.0474 40.6939 38.5662 41.998 33.99 42C32.6664 42.0002 31.3452 41.8899 30.04 41.67L8 38L12 35L11.14 34.36L28 37.17V28.67L30.04 28.33C30.69 28.22 31.34 28.14 32 28.08V37.79C32.991 37.9249 33.9898 37.9951 34.99 38C39.5662 37.998 44.0474 36.6939 47.91 34.24L49.36 33.32L52 35Z" fill="#4891D3"/>
<path d="M27 35L24.6 40.76L20.32 40.05L22 35L20.17 29.97L24.4 29.27L27 35Z" fill="#A1D51C"/>
<path d="M45 35L42.78 40.33C41.1652 40.9688 39.4851 41.4282 37.77 41.7L40 35L37.55 28.27C38.6207 28.4298 39.6797 28.6603 40.72 28.96C41.33 29.14 41.93 29.34 42.53 29.58H42.54L45 35Z" fill="#F8664F"/>
<path d="M26.22 36.87L24.6 40.76L20.32 40.05L21.63 36.11L26.22 36.87Z" fill="#7AB92D"/>
<path d="M44.58 36L42.78 40.33C41.1652 40.9688 39.4851 41.4283 37.77 41.7L39.12 37.64C41.0004 37.3197 42.8343 36.7689 44.58 36Z" fill="#CC5144"/>
<path d="M16 48L14.609 57.039C13.6229 57.1329 12.707 57.5906 12.0398 58.3228C11.3727 59.055 11.002 60.0094 11 61H19L21 48H16Z" fill="#F9E109"/>
<path d="M30.2 48L31.59 57.039C32.5763 57.1327 33.4924 57.5902 34.1598 58.3225C34.8272 59.0547 35.198 60.0093 35.2 61H27.2L25.2 48H30.2Z" fill="#F9E109"/>
<path d="M17 9H29V15C29 16.5913 28.3679 18.1174 27.2426 19.2426C26.1174 20.3679 24.5913 21 23 21C21.4087 21 19.8826 20.3679 18.7574 19.2426C17.6321 18.1174 17 16.5913 17 15V9Z" fill="#F9E109"/>
<path d="M24 3H22C18.134 3 15 6.13401 15 10C15 13.866 18.134 17 22 17H24C27.866 17 31 13.866 31 10C31 6.13401 27.866 3 24 3Z" fill="#57B7EB"/>
<path d="M30 26V41C30 41.5304 30.2107 42.0391 30.5858 42.4142C30.9609 42.7893 31.4696 43 32 43C32.5304 43 33.0391 42.7893 33.4142 42.4142C33.7893 42.0391 34 41.5304 34 41V26H30Z" fill="#F9E109"/>
<path d="M33.74 41.98C33.564 42.2869 33.3108 42.5425 33.0056 42.7214C32.7004 42.9003 32.3538 42.9963 32 43C31.4701 42.9984 30.9623 42.7872 30.5875 42.4125C30.2128 42.0377 30.0016 41.5299 30 41V26C30.5299 26.0016 31.0377 26.2128 31.4125 26.5875C31.7872 26.9623 31.9984 27.4701 32 28V39.89C31.9884 40.3764 32.1484 40.8514 32.4519 41.2317C32.7554 41.612 33.1831 41.8734 33.66 41.97C33.69 41.97 33.72 41.98 33.74 41.98Z" fill="#FCBC04"/>
<path d="M30.53 12.53C30.0184 13.8461 29.1212 14.9769 27.956 15.7745C26.7909 16.5721 25.412 16.9993 24 17H22C20.6154 17.0001 19.262 16.5896 18.1107 15.8204C16.9595 15.0513 16.0622 13.958 15.5324 12.6789C15.0025 11.3997 14.8639 9.99216 15.134 8.63423C15.4042 7.2763 16.0709 6.02897 17.05 5.05C17.7362 4.35859 18.5609 3.82015 19.47 3.47C19.0605 4.531 18.9154 5.67572 19.0472 6.80534C19.1791 7.93495 19.5839 9.01549 20.2268 9.95366C20.8696 10.8918 21.7311 11.6594 22.737 12.1902C23.7428 12.7209 24.8627 12.9989 26 13H28C28.8651 13.0005 29.7228 12.8412 30.53 12.53V12.53Z" fill="#4891D3"/>
<path d="M35.2 61H27.2L25.2 48H30.2L30.51 50H29.95C29.6618 49.9996 29.3769 50.0615 29.1148 50.1815C28.8527 50.3015 28.6197 50.4767 28.4317 50.6952C28.2436 50.9136 28.105 51.1701 28.0253 51.4471C27.9456 51.7241 27.9268 52.015 27.97 52.3L28.61 56.46C28.7179 57.1675 29.0759 57.8128 29.619 58.2789C30.1621 58.7449 30.8544 59.0008 31.57 59H34.65C35.0119 59.6042 35.202 60.2957 35.2 61Z" fill="#FCBC04"/>
<path d="M21 48L20.69 50H19.79C19.2973 49.9995 18.8217 50.1808 18.4545 50.5093C18.0873 50.8378 17.8542 51.2903 17.8 51.78L17.25 56.78C17.2191 57.0588 17.2473 57.3411 17.3326 57.6083C17.4179 57.8756 17.5585 58.1219 17.7453 58.3312C17.932 58.5406 18.1607 58.7084 18.4165 58.8236C18.6723 58.9388 18.9495 58.9989 19.23 59H19.31L19 61H11C11.002 60.0094 11.3729 59.055 12.0403 58.3229C12.7077 57.5908 13.6238 57.1334 14.61 57.04L16 48H21Z" fill="#FCBC04"/>
<path d="M50 18C52.2091 18 54 16.2091 54 14C54 11.7909 52.2091 10 50 10C47.7909 10 46 11.7909 46 14C46 16.2091 47.7909 18 50 18Z" fill="#F89C8D"/>
<path d="M53.78 15.28C53.563 15.9242 53.1852 16.5023 52.6824 16.9597C52.1795 17.417 51.5683 17.7385 50.9065 17.8936C50.2447 18.0488 49.5542 18.0324 48.9005 17.8462C48.2468 17.6599 47.6514 17.3099 47.1708 16.8292C46.6901 16.3486 46.3401 15.7532 46.1539 15.0995C45.9676 14.4458 45.9513 13.7553 46.1064 13.0935C46.2615 12.4317 46.583 11.8205 47.0403 11.3176C47.4977 10.8148 48.0758 10.437 48.72 10.22C48.5702 10.63 48.4957 11.0636 48.5 11.5C48.5 12.5609 48.9214 13.5783 49.6716 14.3284C50.4217 15.0786 51.4391 15.5 52.5 15.5C52.9364 15.5043 53.3701 15.4298 53.78 15.28V15.28Z" fill="#F8664F"/>
<path d="M42.648 45.063C40.4115 45.9015 38.0508 46.3615 35.663 46.424C35.3978 46.4275 35.1448 46.5361 34.9597 46.7261C34.7746 46.9161 34.6726 47.1718 34.676 47.437C34.6795 47.7022 34.7881 47.9552 34.9781 48.1403C35.1681 48.3254 35.4238 48.4275 35.689 48.424H35.718C38.3275 48.3554 40.9073 47.8532 43.352 46.938C48.2842 45.0875 53.7199 45.0875 58.652 46.938L60.652 47.688C60.9005 47.7808 61.1757 47.7711 61.4171 47.6611C61.6585 47.551 61.8462 47.3495 61.939 47.101C62.0318 46.8525 62.0221 46.5773 61.9121 46.3359C61.802 46.0946 61.6005 45.9068 61.352 45.814L59.352 45.064C53.967 43.0456 48.0333 43.0452 42.648 45.063V45.063Z" fill="#39519D"/>
<path d="M3.00001 53.75C3.11979 53.7496 3.23857 53.7283 3.35101 53.687L5.35101 52.937C7.49263 52.135 9.74808 51.6783 12.033 51.584C12.1643 51.5785 12.2933 51.5472 12.4125 51.4918C12.5317 51.4365 12.6389 51.3582 12.7278 51.2614C12.8168 51.1647 12.8858 51.0513 12.931 50.9279C12.9761 50.8045 12.9965 50.6733 12.991 50.542C12.9855 50.4107 12.9542 50.2817 12.8988 50.1625C12.8435 50.0433 12.7652 49.9362 12.6684 49.8472C12.5717 49.7582 12.4583 49.6892 12.3349 49.6441C12.2115 49.5989 12.0803 49.5785 11.949 49.584C9.45277 49.6863 6.98867 50.1848 4.64901 51.061L2.64901 51.811C2.42783 51.892 2.24233 52.0485 2.12522 52.2529C2.0081 52.4572 1.9669 52.6964 2.00885 52.9282C2.05081 53.1599 2.17324 53.3695 2.35457 53.5198C2.53589 53.6702 2.76447 53.7517 3.00001 53.75V53.75Z" fill="#39519D"/>
<path d="M61.352 54.063L53.352 51.063C47.9682 49.0453 42.0358 49.0453 36.652 51.063C35.1085 51.6385 33.5045 52.0368 31.871 52.25L31.748 51.45C31.6998 51.1957 31.5548 50.97 31.3436 50.8204C31.1324 50.6708 30.8714 50.6089 30.6155 50.6477C30.3595 50.6866 30.1287 50.8232 29.9714 51.0287C29.8141 51.2343 29.7426 51.4928 29.772 51.75L30.608 57.186C30.6416 57.4057 30.7475 57.6079 30.9088 57.7608C31.0702 57.9136 31.2778 58.0083 31.499 58.03C32.2732 58.1055 32.9878 58.4788 33.492 59.071C33.5001 59.0821 33.5088 59.0928 33.518 59.103C33.7412 59.3677 33.9158 59.6696 34.034 59.995H28.064L26.368 49H32C32.1465 49 32.2912 48.9679 32.4239 48.9058C32.5566 48.8437 32.6741 48.7532 32.7679 48.6408C32.8618 48.5283 32.9298 48.3966 32.9671 48.2549C33.0045 48.1133 33.0103 47.9651 32.984 47.821L32.284 43.971C33.032 43.9015 33.7261 43.5518 34.227 42.992C38.9137 42.9527 43.4951 41.5975 47.449 39.081L52.537 35.844C52.6791 35.7537 52.7961 35.629 52.8771 35.4815C52.9582 35.334 53.0007 35.1683 53.0007 35C53.0007 34.8317 52.9582 34.6661 52.8771 34.5185C52.7961 34.371 52.6791 34.2463 52.537 34.156L47.449 30.919C43.716 28.5461 39.4201 27.2062 35 27.036V26C34.9984 24.6744 34.4711 23.4036 33.5338 22.4662C32.5965 21.5289 31.3256 21.0016 30 21H27V20.736C27.8835 20.1196 28.6127 19.3074 29.1305 18.3627C29.6483 17.418 29.9407 16.3664 29.985 15.29C31.0078 14.1381 31.6757 12.715 31.9081 11.1922C32.1406 9.66946 31.9277 8.11194 31.2952 6.70737C30.6626 5.30279 29.6374 4.1111 28.3431 3.27589C27.0487 2.44068 25.5405 1.99759 24 2.00001H22C20.6785 2.0008 19.3776 2.32818 18.213 2.95301C17.9858 3.08196 17.818 3.29472 17.7457 3.54578C17.6733 3.79684 17.7021 4.06624 17.8258 4.29636C17.9496 4.52647 18.1585 4.69901 18.4078 4.77707C18.6572 4.85512 18.9272 4.83249 19.16 4.71401C20.0334 4.24561 21.009 4.00033 22 4.00001H24C25.5913 4.00001 27.1175 4.63215 28.2427 5.75737C29.3679 6.88259 30 8.40871 30 10C30 11.5913 29.3679 13.1174 28.2427 14.2427C27.1175 15.3679 25.5913 16 24 16H22C20.96 16.0001 19.9377 15.7299 19.0336 15.2158C18.1295 14.7017 17.3745 13.9614 16.8428 13.0675C16.3111 12.1737 16.0208 11.1569 16.0005 10.1171C15.9802 9.07722 16.2306 8.04994 16.727 7.13601C16.8538 6.90302 16.8828 6.62921 16.8077 6.37481C16.7326 6.12042 16.5595 5.90628 16.3265 5.77951C16.0935 5.65274 15.8197 5.62371 15.5653 5.69882C15.3109 5.77393 15.0968 5.94702 14.97 6.18001C14.1856 7.62147 13.865 9.26986 14.0521 10.9002C14.2391 12.5306 14.9246 14.0636 16.015 15.29C16.0565 16.3549 16.3412 17.3961 16.8473 18.3339C17.3534 19.2717 18.0674 20.0812 18.9347 20.7004C19.802 21.3196 20.7995 21.7321 21.8509 21.9062C22.9022 22.0804 23.9794 22.0115 25 21.705V22C25 22.2652 25.1054 22.5196 25.2929 22.7071C25.4805 22.8947 25.7348 23 26 23H30C30.7957 23 31.5587 23.3161 32.1213 23.8787C32.684 24.4413 33 25.2044 33 26V41C33 41.2652 32.8947 41.5196 32.7071 41.7071C32.5196 41.8947 32.2652 42 32 42C31.7348 42 31.4805 41.8947 31.2929 41.7071C31.1054 41.5196 31 41.2652 31 41V27C31 26.7348 30.8947 26.4804 30.7071 26.2929C30.5196 26.1054 30.2652 26 30 26C29.7348 26 29.4805 26.1054 29.2929 26.2929C29.1054 26.4804 29 26.7348 29 27V27.486L17 29.486V27C17 26.7348 16.8947 26.4804 16.7071 26.2929C16.5196 26.1054 16.2652 26 16 26C15.7348 26 15.4805 26.1054 15.2929 26.2929C15.1054 26.4804 15 26.7348 15 27V29.82L13 30.153V26C13 25.2044 13.3161 24.4413 13.8787 23.8787C14.4413 23.3161 15.2044 23 16 23C16.2652 23 16.5196 22.8947 16.7071 22.7071C16.8947 22.5196 17 22.2652 17 22C17 21.7348 16.8947 21.4804 16.7071 21.2929C16.5196 21.1054 16.2652 21 16 21C14.6744 21.0016 13.4036 21.5289 12.4662 22.4662C11.5289 23.4036 11.0016 24.6744 11 26V30.486L7.83503 31.014C7.64203 31.0464 7.46277 31.1346 7.31945 31.2679C7.17613 31.4011 7.07506 31.5735 7.02875 31.7636C6.98244 31.9537 6.99294 32.1533 7.05893 32.3375C7.12493 32.5217 7.24353 32.6825 7.40003 32.8L10.333 35L7.40003 37.2C7.24353 37.3175 7.12493 37.4783 7.05893 37.6625C6.99294 37.8467 6.98244 38.0463 7.02875 38.2364C7.07506 38.4265 7.17613 38.5989 7.31945 38.7322C7.46277 38.8654 7.64203 38.9537 7.83503 38.986L11 39.514V41C11.0023 41.7443 11.2818 42.461 11.784 43.0103C12.2861 43.5596 12.975 43.9021 13.716 43.971L13.677 44.184C12.6489 44.408 11.6373 44.7017 10.649 45.063L2.64903 48.063C2.42923 48.145 2.24523 48.3016 2.12922 48.5054C2.0132 48.7093 1.97255 48.9475 2.01438 49.1783C2.0562 49.4091 2.17784 49.6179 2.35802 49.7681C2.5382 49.9183 2.76545 50.0004 3.00003 50C3.1198 49.9996 3.23859 49.9783 3.35103 49.937L11.351 46.937C11.97 46.705 12.618 46.51 13.287 46.337L13.016 47.827C12.9908 47.9707 12.9973 48.1182 13.0351 48.2591C13.0729 48.4 13.1411 48.5309 13.2348 48.6427C13.3286 48.7545 13.4457 48.8444 13.5779 48.9061C13.71 48.9678 13.8541 48.9999 14 49H14.835L13.891 55.132C12.7896 55.3649 11.7062 55.676 10.649 56.063L2.64903 59.063C2.42923 59.145 2.24523 59.3016 2.12922 59.5054C2.0132 59.7093 1.97255 59.9475 2.01438 60.1783C2.0562 60.4091 2.17784 60.6179 2.35802 60.7681C2.5382 60.9183 2.76545 61.0004 3.00003 61C3.1198 60.9996 3.23859 60.9783 3.35103 60.937L10.951 58.086C10.3334 58.9321 10.0004 59.9525 10 61C10 61.2652 10.1054 61.5196 10.2929 61.7071C10.4805 61.8947 10.7348 62 11 62H19C19.2388 61.9999 19.4697 61.9144 19.6509 61.7588C19.8322 61.6033 19.9517 61.388 19.988 61.152L20.681 56.652C22.3773 56.781 24.0525 57.1092 25.672 57.63L26.214 61.153C26.2505 61.3885 26.3699 61.6033 26.5506 61.7586C26.7314 61.9139 26.9617 61.9995 27.2 62H35.2C35.4652 62 35.7196 61.8947 35.9071 61.7071C36.0947 61.5196 36.2 61.2652 36.2 61C36.1997 60.4526 36.1091 59.909 35.932 59.391C38.4666 59.3097 40.9713 58.8187 43.349 57.937C44.7194 57.4224 46.1383 57.0475 47.584 56.818C47.842 56.7722 48.0716 56.6269 48.2236 56.4135C48.3755 56.2002 48.4377 55.9357 48.3967 55.6769C48.3557 55.4182 48.2148 55.1859 48.0043 55.0299C47.7938 54.874 47.5305 54.8069 47.271 54.843C45.692 55.0936 44.1422 55.5023 42.645 56.063C40.0937 57.0111 37.3862 57.4685 34.665 57.411C34.0492 56.8198 33.2915 56.3969 32.465 56.183L32.165 54.226C33.9346 53.9919 35.6721 53.5595 37.345 52.937C42.2772 51.0865 47.7129 51.0865 52.645 52.937L60.645 55.937C60.7588 55.9786 60.8789 55.9999 61 56C61.2347 56.0006 61.4621 55.9187 61.6425 55.7686C61.8228 55.6185 61.9446 55.4097 61.9866 55.1788C62.0285 54.9479 61.988 54.7096 61.872 54.5057C61.756 54.3017 61.5719 54.145 61.352 54.063ZM18.531 17.2C19.612 17.7255 20.7981 17.9991 22 18H24C25.202 17.9991 26.3881 17.7255 27.469 17.2C27.0626 18.0397 26.4278 18.7479 25.6374 19.2435C24.847 19.739 23.9329 20.0018 23 20.0018C22.0671 20.0018 21.1531 19.739 20.3627 19.2435C19.5723 18.7479 18.9375 18.0397 18.531 17.2ZM35 40.959V36H38.613L37.019 40.788C36.352 40.876 35.678 40.928 35 40.959ZM46.375 37.394C45.824 37.744 45.257 38.062 44.682 38.363L45.666 36H48.566L46.375 37.394ZM48.565 34H45.644L44.544 31.565C45.168 31.887 45.784 32.227 46.38 32.606L48.565 34ZM41.8 30.367L43.91 35.017L42.02 39.556C41.1198 39.8864 40.1997 40.1596 39.265 40.374L40.949 35.316C40.9759 35.2281 40.99 35.1369 40.991 35.045C40.991 35.029 41 35.016 41 35V34.994C40.9996 34.8794 40.9793 34.7657 40.94 34.658L40 32.066C39.9081 31.8183 39.7219 31.617 39.482 31.5062C39.2422 31.3954 38.9682 31.3839 38.72 31.4744C38.4718 31.5649 38.2694 31.75 38.1572 31.9892C38.045 32.2284 38.032 32.5023 38.121 32.751L38.572 34H35V29.036C37.3209 29.134 39.6135 29.5828 41.8 30.367V30.367ZM21.972 48.267L23 45.692L24.071 48.372C24.1243 48.4952 24.2019 48.6064 24.299 48.699L24.81 52.023C23.6948 51.8109 22.5983 51.5099 21.531 51.123L21.972 48.267ZM25.677 47L23.929 42.628C23.855 42.4421 23.7269 42.2827 23.5612 42.1704C23.3956 42.0581 23.2001 41.9981 23 41.9981C22.7999 41.9981 22.6044 42.0581 22.4388 42.1704C22.2732 42.2827 22.1451 42.4421 22.071 42.628L20.323 47H15.2L15.526 45.207L15.865 43.342V43.334C16.2179 43.0556 16.5032 42.7011 16.6998 42.297C16.8963 41.8928 16.999 41.4494 17 41V40.514L26.425 42.084C26.4795 42.0936 26.5347 42.0983 26.59 42.098C26.8405 42.0973 27.0816 42.0027 27.2657 41.8327C27.4497 41.6628 27.5633 41.43 27.5839 41.1803C27.6045 40.9307 27.5307 40.6824 27.377 40.4845C27.2233 40.2867 27.001 40.1538 26.754 40.112L26.005 39.987L27.667 36H29V41C29.0018 41.4488 29.1047 41.8914 29.301 42.2949C29.4973 42.6985 29.782 43.0526 30.134 43.331L30.8 47H25.677ZM22.949 35.316C22.9746 35.2292 22.9884 35.1394 22.99 35.049C22.99 35.032 23 35.018 23 35V34.993C22.9993 34.8788 22.9793 34.7656 22.941 34.658L21.523 30.758L23.806 30.378L25.911 35.015L23.981 39.647L21.638 39.257L22.949 35.316ZM29 34H27.644L25.844 30.039L29 29.514V34ZM19.515 31.1L20.572 34H12.333L10.47 32.6L19.515 31.1ZM12.333 36H20.614L19.64 38.926L10.47 37.4L12.333 36ZM13 41V39.847L15 40.18V41C15 41.2652 14.8947 41.5196 14.7071 41.7071C14.5196 41.8947 14.2652 42 14 42C13.7348 42 13.4805 41.8947 13.2929 41.7071C13.1054 41.5196 13 41.2652 13 41ZM12.172 60C12.3641 59.4654 12.7045 58.9966 13.1535 58.6485C13.6025 58.3005 14.1414 58.0877 14.707 58.035C14.9282 58.0133 15.1359 57.9186 15.2972 57.7658C15.4586 57.6129 15.5644 57.4107 15.598 57.191L16.858 49H19.834L18.142 60H12.172ZM20.986 54.67L21.222 53.132C22.4949 53.5652 23.8023 53.8897 25.13 54.102L25.33 55.431C23.9089 55.0426 22.4546 54.7879 20.986 54.67V54.67Z" fill="#39519D"/>
<path d="M61.352 56.813L59.352 56.063C56.7102 55.0714 53.9128 54.5587 51.091 54.549V54.549C50.8258 54.549 50.5714 54.6544 50.3839 54.8419C50.1964 55.0294 50.091 55.2838 50.091 55.549C50.091 55.8142 50.1964 56.0686 50.3839 56.2561C50.5714 56.4437 50.8258 56.549 51.091 56.549C53.6752 56.5573 56.2372 57.0274 58.656 57.937L60.656 58.687C60.7663 58.7273 60.8826 58.7486 61 58.75C61.2347 58.7506 61.4621 58.6687 61.6424 58.5186C61.8228 58.3685 61.9446 58.1597 61.9866 57.9288C62.0285 57.6979 61.988 57.4596 61.8719 57.2557C61.7559 57.0517 61.5719 56.895 61.352 56.813Z" fill="#39519D"/>
<path d="M50 19C50.9889 19 51.9556 18.7068 52.7779 18.1574C53.6001 17.6079 54.241 16.8271 54.6194 15.9134C54.9978 14.9998 55.0969 13.9945 54.9039 13.0246C54.711 12.0546 54.2348 11.1637 53.5355 10.4645C52.8363 9.76521 51.9454 9.289 50.9755 9.09608C50.0055 8.90315 49.0002 9.00217 48.0866 9.3806C47.173 9.75904 46.3921 10.3999 45.8427 11.2222C45.2932 12.0444 45 13.0111 45 14C45.0016 15.3256 45.5289 16.5964 46.4662 17.5338C47.4036 18.4711 48.6744 18.9984 50 19ZM50 11C50.5933 11 51.1734 11.1759 51.6667 11.5056C52.1601 11.8352 52.5446 12.3038 52.7716 12.852C52.9987 13.4001 53.0581 14.0033 52.9424 14.5853C52.8266 15.1672 52.5409 15.7018 52.1213 16.1213C51.7018 16.5409 51.1672 16.8266 50.5853 16.9424C50.0033 17.0581 49.4001 16.9987 48.852 16.7716C48.3038 16.5446 47.8352 16.1601 47.5056 15.6667C47.1759 15.1734 47 14.5933 47 14C47 13.2044 47.3161 12.4413 47.8787 11.8787C48.4413 11.3161 49.2044 11 50 11V11Z" fill="#39519D"/>
<path d="M50 7C50.5523 7 51 6.55228 51 6C51 5.44772 50.5523 5 50 5C49.4477 5 49 5.44772 49 6C49 6.55228 49.4477 7 50 7Z" fill="#39519D"/>
<path d="M50 23C50.5523 23 51 22.5523 51 22C51 21.4477 50.5523 21 50 21C49.4477 21 49 21.4477 49 22C49 22.5523 49.4477 23 50 23Z" fill="#39519D"/>
<path d="M58 15C58.5523 15 59 14.5523 59 14C59 13.4477 58.5523 13 58 13C57.4477 13 57 13.4477 57 14C57 14.5523 57.4477 15 58 15Z" fill="#39519D"/>
<path d="M42 15C42.5523 15 43 14.5523 43 14C43 13.4477 42.5523 13 42 13C41.4477 13 41 13.4477 41 14C41 14.5523 41.4477 15 42 15Z" fill="#39519D"/>
<path d="M56.364 9.05002C56.5039 8.91018 56.5992 8.73199 56.6378 8.53801C56.6764 8.34402 56.6566 8.14293 56.5809 7.96019C56.5052 7.77745 56.3771 7.62125 56.2126 7.51136C56.0482 7.40146 55.8548 7.3428 55.657 7.3428C55.4592 7.3428 55.2659 7.40146 55.1014 7.51136C54.937 7.62125 54.8088 7.77745 54.7331 7.96019C54.6574 8.14293 54.6376 8.34402 54.6762 8.53801C54.7149 8.73199 54.8101 8.91018 54.95 9.05002C55.1375 9.23749 55.3919 9.3428 55.657 9.3428C55.9222 9.3428 56.1765 9.23749 56.364 9.05002V9.05002Z" fill="#39519D"/>
<path d="M45.05 20.364C45.1899 20.2242 45.2852 20.046 45.3238 19.852C45.3624 19.658 45.3426 19.4569 45.2669 19.2742C45.1912 19.0914 45.0631 18.9352 44.8986 18.8254C44.7342 18.7155 44.5408 18.6568 44.343 18.6568C44.1452 18.6568 43.9519 18.7155 43.7874 18.8254C43.623 18.9352 43.4948 19.0914 43.4191 19.2742C43.3434 19.4569 43.3236 19.658 43.3623 19.852C43.4009 20.046 43.4961 20.2242 43.636 20.364C43.8235 20.5515 44.0779 20.6568 44.343 20.6568C44.6082 20.6568 44.8625 20.5515 45.05 20.364V20.364Z" fill="#39519D"/>
<path d="M56.364 20.364C56.5039 20.2242 56.5992 20.046 56.6378 19.852C56.6764 19.658 56.6566 19.4569 56.5809 19.2742C56.5052 19.0914 56.3771 18.9352 56.2126 18.8254C56.0482 18.7155 55.8548 18.6568 55.657 18.6568C55.4592 18.6568 55.2659 18.7155 55.1014 18.8254C54.937 18.9352 54.8088 19.0914 54.7331 19.2742C54.6574 19.4569 54.6376 19.658 54.6762 19.852C54.7149 20.046 54.8101 20.2242 54.95 20.364C55.1375 20.5515 55.3919 20.6568 55.657 20.6568C55.9222 20.6568 56.1765 20.5515 56.364 20.364V20.364Z" fill="#39519D"/>
<path d="M45.05 9.05002C45.1899 8.91018 45.2852 8.73199 45.3238 8.53801C45.3624 8.34402 45.3426 8.14293 45.2669 7.96019C45.1912 7.77745 45.0631 7.62125 44.8986 7.51136C44.7342 7.40146 44.5408 7.3428 44.343 7.3428C44.1452 7.3428 43.9519 7.40146 43.7874 7.51136C43.623 7.62125 43.4948 7.77745 43.4191 7.96019C43.3434 8.14293 43.3236 8.34402 43.3623 8.53801C43.4009 8.73199 43.4961 8.91018 43.636 9.05002C43.8235 9.23749 44.0779 9.3428 44.343 9.3428C44.6082 9.3428 44.8625 9.23749 45.05 9.05002V9.05002Z" fill="#39519D"/>
</svg>
