<svg width="48" height="48" xmlns="http://www.w3.org/2000/svg" fill="none">

 <g>
  <title>background</title>
  <rect fill="none" id="canvas_background" height="772" width="1662" y="-1" x="-1"/>
 </g>
 <g>
  <title>Layer 1</title>
  <path id="svg_1" stroke-linejoin="round" stroke-linecap="round" stroke-width="4" stroke="black" fill="#ffff00" d="m19,41c-5.5,-2.75 -10.99871,-11 -13.99937,-16c-3.00067,-5 3.31257,-9.6875 6.99977,-6c3.6872,3.6875 4,4 4,4l0,-5.5c0,-1.933 1.567,-3.5 3.5,-3.5c1.933,0 3.5,1.567 3.5,3.5l0,-1.5c0,-1.933 1.567,-3.5 3.5,-3.5c1.933,0 3.5,1.567 3.5,3.5l0,1.5c0,-1.933 1.567,-3.5 3.5,-3.5c1.933,0 3.5,1.567 3.5,3.5l0,-10c0,-1.933 1.567,-3.5 3.5,-3.5c1.933,0 3.5,1.567 3.5,3.5l0,21.4663c0,2.0026 -0.3702,4.008 -1.4554,5.691c-1.2819,1.988 -3.4334,4.6455 -6.545,6.3427c-5.5001,3 -11.5,2.75 -17,0z"/>
 </g>
</svg>