<?xml version="1.0" encoding="UTF-8" standalone="no"?> <svg width="64" height="64" viewBox="0 0 64 64" fill="none" xmlns="http://www.w3.org/2000/svg">
<path d="M32 3C32.1283 3.51218 32.3911 3.98075 32.7614 4.35717C33.1316 4.73358 33.5958 5.00415 34.1058 5.14083C34.6158 5.2775 35.1531 5.27533 35.662 5.13452C36.1708 4.99372 36.6328 4.7194 37 4.34V4.34C36.8551 4.84765 36.8486 5.3848 36.981 5.89583C37.1135 6.40685 37.3802 6.87317 37.7535 7.24646C38.1268 7.61976 38.5931 7.88647 39.1042 8.01896C39.6152 8.15145 40.1524 8.1449 40.66 8V8C40.2806 8.3672 40.0063 8.82917 39.8655 9.33804C39.7247 9.84691 39.7225 10.3842 39.8592 10.8942C39.9959 11.4042 40.2664 11.8684 40.6428 12.2386C41.0192 12.6089 41.4878 12.8717 42 13V13C41.4878 13.1283 41.0192 13.3911 40.6428 13.7614C40.2664 14.1316 39.9959 14.5958 39.8592 15.1058C39.7225 15.6158 39.7247 16.1531 39.8655 16.662C40.0063 17.1708 40.2806 17.6328 40.66 18V18C40.1524 17.8551 39.6152 17.8486 39.1042 17.981C38.5931 18.1135 38.1268 18.3802 37.7535 18.7535C37.3802 19.1268 37.1135 19.5931 36.981 20.1042C36.8486 20.6152 36.8551 21.1524 37 21.66C36.6328 21.2806 36.1708 21.0063 35.662 20.8655C35.1531 20.7247 34.6158 20.7225 34.1058 20.8592C33.5958 20.9959 33.1316 21.2664 32.7614 21.6428C32.3911 22.0192 32.1283 22.4878 32 23V23C31.8717 22.4878 31.6089 22.0192 31.2386 21.6428C30.8684 21.2664 30.4042 20.9959 29.8942 20.8592C29.3842 20.7225 28.8469 20.7247 28.338 20.8655C27.8292 21.0063 27.3672 21.2806 27 21.66V21.66C27.1449 21.1524 27.1514 20.6152 27.019 20.1042C26.8865 19.5931 26.6198 19.1268 26.2465 18.7535C25.8732 18.3802 25.4069 18.1135 24.8958 17.981C24.3848 17.8486 23.8476 17.8551 23.34 18V18C23.7194 17.6328 23.9937 17.1708 24.1345 16.662C24.2753 16.1531 24.2775 15.6158 24.1408 15.1058C24.0041 14.5958 23.7336 14.1316 23.3572 13.7614C22.9808 13.3911 22.5122 13.1283 22 13C22.5122 12.8717 22.9808 12.6089 23.3572 12.2386C23.7336 11.8684 24.0041 11.4042 24.1408 10.8942C24.2775 10.3842 24.2753 9.84691 24.1345 9.33804C23.9937 8.82917 23.7194 8.3672 23.34 8V8C23.8476 8.1449 24.3848 8.15145 24.8958 8.01896C25.4069 7.88647 25.8732 7.61976 26.2465 7.24646C26.6198 6.87317 26.8865 6.40685 27.019 5.89583C27.1514 5.3848 27.1449 4.84765 27 4.34V4.34C27.3672 4.7194 27.8292 4.99372 28.338 5.13452C28.8469 5.27533 29.3842 5.2775 29.8942 5.14083C30.4042 5.00415 30.8684 4.73358 31.2386 4.35717C31.6089 3.98075 31.8717 3.51218 32 3V3Z" fill="#FFFA48"/>
<path d="M32 6C32.0899 6.35847 32.2739 6.6864 32.5331 6.94982C32.7923 7.21325 33.1172 7.40261 33.4742 7.49827C33.8311 7.59394 34.2072 7.59244 34.5634 7.49393C34.9195 7.39542 35.2429 7.20349 35.5 6.938V6.938C35.3983 7.29338 35.3936 7.66948 35.4862 8.02731C35.5789 8.38515 35.7656 8.71168 36.027 8.97305C36.2883 9.23442 36.6149 9.42111 36.9727 9.51377C37.3305 9.60642 37.7066 9.60167 38.062 9.5V9.5C37.7965 9.75708 37.6046 10.0805 37.5061 10.4366C37.4076 10.7928 37.4061 11.1689 37.5017 11.5258C37.5974 11.8828 37.7867 12.2077 38.0502 12.4669C38.3136 12.7261 38.6415 12.9101 39 13C38.6415 13.0899 38.3136 13.2739 38.0502 13.5331C37.7867 13.7923 37.5974 14.1172 37.5017 14.4742C37.4061 14.8311 37.4076 15.2072 37.5061 15.5634C37.6046 15.9195 37.7965 16.2429 38.062 16.5C37.7066 16.3983 37.3305 16.3936 36.9727 16.4862C36.6149 16.5789 36.2883 16.7656 36.027 17.027C35.7656 17.2883 35.5789 17.6149 35.4862 17.9727C35.3936 18.3305 35.3983 18.7066 35.5 19.062V19.062C35.2429 18.7965 34.9195 18.6046 34.5634 18.5061C34.2072 18.4076 33.8311 18.4061 33.4742 18.5017C33.1172 18.5974 32.7923 18.7867 32.5331 19.0502C32.2739 19.3136 32.0899 19.6415 32 20V20C31.9101 19.6415 31.7261 19.3136 31.4669 19.0502C31.2077 18.7867 30.8828 18.5974 30.5258 18.5017C30.1689 18.4061 29.7928 18.4076 29.4366 18.5061C29.0805 18.6046 28.7571 18.7965 28.5 19.062V19.062C28.6017 18.7066 28.6064 18.3305 28.5138 17.9727C28.4211 17.6149 28.2344 17.2883 27.973 17.027C27.7117 16.7656 27.3851 16.5789 27.0273 16.4862C26.6695 16.3936 26.2934 16.3983 25.938 16.5C26.2035 16.2429 26.3954 15.9195 26.4939 15.5634C26.5924 15.2072 26.5939 14.8311 26.4983 14.4742C26.4026 14.1172 26.2133 13.7923 25.9498 13.5331C25.6864 13.2739 25.3585 13.0899 25 13V13C25.3585 12.9101 25.6864 12.7261 25.9498 12.4669C26.2133 12.2077 26.4026 11.8828 26.4983 11.5258C26.5939 11.1689 26.5924 10.7928 26.4939 10.4366C26.3954 10.0805 26.2035 9.75708 25.938 9.5C26.2934 9.60167 26.6695 9.60642 27.0273 9.51377C27.3851 9.42111 27.7117 9.23442 27.973 8.97305C28.2344 8.71168 28.4211 8.38515 28.5138 8.02731C28.6064 7.66948 28.6017 7.29338 28.5 6.938V6.938C28.7571 7.20349 29.0805 7.39542 29.4366 7.49393C29.7928 7.59244 30.1689 7.59394 30.5258 7.49827C30.8828 7.40261 31.2077 7.21325 31.4669 6.94982C31.7261 6.6864 31.9101 6.35847 32 6Z" fill="#FDC741"/>
<path d="M61 28.89V41.39H3V28.89L5 29.89C5.93113 30.3569 6.95838 30.6 8 30.6C9.04162 30.6 10.0689 30.3569 11 29.89C11.9311 29.4231 12.9584 29.18 14 29.18C15.0416 29.18 16.0689 29.4231 17 29.89C17.9311 30.3569 18.9584 30.6 20 30.6C21.0416 30.6 22.0689 30.3569 23 29.89C23.9311 29.4231 24.9584 29.18 26 29.18C27.0416 29.18 28.0689 29.4231 29 29.89C29.9311 30.3569 30.9584 30.6 32 30.6C33.0416 30.6 34.0689 30.3569 35 29.89C35.9311 29.4231 36.9584 29.18 38 29.18C39.0416 29.18 40.0689 29.4231 41 29.89C41.9311 30.3569 42.9584 30.6 44 30.6C45.0416 30.6 46.0689 30.3569 47 29.89C47.9321 29.4263 48.9589 29.185 50 29.185C51.0411 29.185 52.0679 29.4263 53 29.89C53.9321 30.3537 54.9589 30.5951 56 30.5951C57.0411 30.5951 58.0679 30.3537 59 29.89L61 28.89Z" fill="#ADE8F4"/>
<path d="M61 30.5V43H3V30.5L5 31.5C5.93113 31.9669 6.95838 32.21 8 32.21C9.04162 32.21 10.0689 31.9669 11 31.5C11.9311 31.0331 12.9584 30.79 14 30.79C15.0416 30.79 16.0689 31.0331 17 31.5C17.9311 31.9669 18.9584 32.21 20 32.21C21.0416 32.21 22.0689 31.9669 23 31.5C23.9311 31.0331 24.9584 30.79 26 30.79C27.0416 30.79 28.0689 31.0331 29 31.5C29.9311 31.9669 30.9584 32.21 32 32.21C33.0416 32.21 34.0689 31.9669 35 31.5C35.9311 31.0331 36.9584 30.79 38 30.79C39.0416 30.79 40.0689 31.0331 41 31.5C41.9311 31.9669 42.9584 32.21 44 32.21C45.0416 32.21 46.0689 31.9669 47 31.5C47.9321 31.0363 48.9589 30.7949 50 30.7949C51.0411 30.7949 52.0679 31.0363 53 31.5C53.9321 31.9637 54.9589 32.2051 56 32.2051C57.0411 32.2051 58.0679 31.9637 59 31.5L61 30.5Z" fill="#48CAE4"/>
<path d="M61 32.5V45H3V32.5L5 33.5C5.93303 33.9605 6.95954 34.2 8 34.2C9.04046 34.2 10.067 33.9605 11 33.5C11.933 33.0395 12.9595 32.8 14 32.8C15.0405 32.8 16.067 33.0395 17 33.5C17.933 33.9605 18.9595 34.2 20 34.2C21.0405 34.2 22.067 33.9605 23 33.5C23.933 33.0395 24.9595 32.8 26 32.8C27.0405 32.8 28.067 33.0395 29 33.5C29.933 33.9605 30.9595 34.2 32 34.2C33.0405 34.2 34.067 33.9605 35 33.5C35.933 33.0395 36.9595 32.8 38 32.8C39.0405 32.8 40.067 33.0395 41 33.5C41.933 33.9605 42.9595 34.2 44 34.2C45.0405 34.2 46.067 33.9605 47 33.5C47.9321 33.0363 48.9589 32.7949 50 32.7949C51.0411 32.7949 52.0679 33.0363 53 33.5C53.9321 33.9637 54.9589 34.2051 56 34.2051C57.0411 34.2051 58.0679 33.9637 59 33.5L61 32.5Z" fill="#00B4D8"/>
<path d="M61 34.5V47H3V34.5L5 35.5C5.93303 35.9605 6.95954 36.2 8 36.2C9.04046 36.2 10.067 35.9605 11 35.5C11.933 35.0395 12.9595 34.8 14 34.8C15.0405 34.8 16.067 35.0395 17 35.5C17.933 35.9605 18.9595 36.2 20 36.2C21.0405 36.2 22.067 35.9605 23 35.5C23.933 35.0395 24.9595 34.8 26 34.8C27.0405 34.8 28.067 35.0395 29 35.5C29.933 35.9605 30.9595 36.2 32 36.2C33.0405 36.2 34.067 35.9605 35 35.5C35.933 35.0395 36.9595 34.8 38 34.8C39.0405 34.8 40.067 35.0395 41 35.5C41.933 35.9605 42.9595 36.2 44 36.2C45.0405 36.2 46.067 35.9605 47 35.5C47.9321 35.0363 48.9589 34.7949 50 34.7949C51.0411 34.7949 52.0679 35.0363 53 35.5C53.9321 35.9637 54.9589 36.2051 56 36.2051C57.0411 36.2051 58.0679 35.9637 59 35.5L61 34.5Z" fill="#0096C7"/>
<path d="M61 37.193C60.3343 37.4233 59.7712 37.8812 59.41 38.486C59.1702 38.9318 58.817 39.3066 58.3862 39.5724C57.9554 39.8382 57.462 39.9857 56.956 40H56.932C56.671 40.0148 56.4117 39.949 56.1893 39.8117C55.9669 39.6743 55.792 39.4719 55.6884 39.2319C55.5848 38.9919 55.5573 38.7258 55.6099 38.4697C55.6624 38.2136 55.7923 37.9799 55.982 37.8L56 37.779C55.6709 37.4789 55.2787 37.2563 54.8524 37.1275C54.426 36.9988 53.9762 36.9671 53.5359 37.035C53.0957 37.1028 52.6763 37.2683 52.3084 37.5194C51.9405 37.7705 51.6336 38.1008 51.41 38.486C51.1702 38.9318 50.817 39.3066 50.3862 39.5724C49.9554 39.8382 49.462 39.9857 48.956 40H48.932C48.671 40.0148 48.4117 39.949 48.1893 39.8117C47.9669 39.6743 47.792 39.4719 47.6884 39.2319C47.5848 38.9919 47.5573 38.7258 47.6099 38.4697C47.6624 38.2136 47.7923 37.9799 47.982 37.8L48 37.779C47.6709 37.4789 47.2787 37.2563 46.8524 37.1275C46.426 36.9988 45.9762 36.9671 45.5359 37.035C45.0957 37.1028 44.6763 37.2683 44.3084 37.5194C43.9405 37.7705 43.6336 38.1008 43.41 38.486C43.1702 38.9318 42.817 39.3066 42.3862 39.5724C41.9554 39.8382 41.462 39.9857 40.956 40H40.932C40.671 40.0148 40.4117 39.949 40.1893 39.8117C39.9669 39.6743 39.792 39.4719 39.6884 39.2319C39.5848 38.9919 39.5573 38.7258 39.6099 38.4697C39.6624 38.2136 39.7923 37.9799 39.982 37.8L40 37.779C39.6709 37.4789 39.2787 37.2563 38.8524 37.1275C38.426 36.9988 37.9762 36.9671 37.5359 37.035C37.0957 37.1028 36.6763 37.2683 36.3084 37.5194C35.9405 37.7705 35.6336 38.1008 35.41 38.486C35.1702 38.9318 34.817 39.3066 34.3862 39.5724C33.9554 39.8382 33.462 39.9857 32.956 40H32.932C32.671 40.0148 32.4117 39.949 32.1893 39.8117C31.9669 39.6743 31.792 39.4719 31.6884 39.2319C31.5848 38.9919 31.5573 38.7258 31.6099 38.4697C31.6624 38.2136 31.7923 37.9799 31.982 37.8L32 37.779C31.6709 37.4789 31.2787 37.2563 30.8524 37.1275C30.426 36.9988 29.9762 36.9671 29.5359 37.035C29.0957 37.1028 28.6763 37.2683 28.3084 37.5194C27.9405 37.7705 27.6336 38.1008 27.41 38.486C27.1702 38.9318 26.817 39.3066 26.3862 39.5724C25.9554 39.8382 25.462 39.9857 24.956 40V40C24.692 40.0161 24.4295 39.9503 24.2043 39.8117C23.9791 39.6731 23.8021 39.4683 23.6976 39.2254C23.593 38.9825 23.566 38.7133 23.6201 38.4544C23.6742 38.1955 23.8069 37.9597 24 37.779C23.6709 37.4789 23.2787 37.2563 22.8524 37.1275C22.426 36.9988 21.9762 36.9671 21.5359 37.035C21.0957 37.1028 20.6763 37.2683 20.3084 37.5194C19.9405 37.7705 19.6336 38.1008 19.41 38.486C19.1702 38.9318 18.817 39.3066 18.3862 39.5724C17.9554 39.8382 17.462 39.9857 16.956 40H16.932C16.671 40.0148 16.4117 39.949 16.1893 39.8117C15.9669 39.6743 15.792 39.4719 15.6884 39.2319C15.5848 38.9919 15.5573 38.7258 15.6099 38.4697C15.6624 38.2136 15.7923 37.9799 15.982 37.8L16 37.779C15.6709 37.4789 15.2787 37.2563 14.8524 37.1275C14.426 36.9988 13.9762 36.9671 13.5359 37.035C13.0957 37.1028 12.6763 37.2683 12.3084 37.5194C11.9405 37.7705 11.6336 38.1008 11.41 38.486C11.1702 38.9318 10.817 39.3066 10.3862 39.5724C9.95536 39.8382 9.46204 39.9857 8.956 40H8.932C8.67099 40.0148 8.41174 39.949 8.18932 39.8117C7.9669 39.6743 7.79205 39.4719 7.68841 39.2319C7.58477 38.9919 7.55735 38.7258 7.60986 38.4697C7.66237 38.2136 7.79228 37.9799 7.982 37.8L8 37.779C7.48923 37.3113 6.83163 37.0359 6.14 37C5.72337 36.9998 5.31087 37.0826 4.92655 37.2434C4.54223 37.4043 4.19378 37.6401 3.90152 37.937C3.60925 38.2339 3.37902 38.586 3.22424 38.9729C3.06946 39.3597 2.99323 39.7734 3 40.19V56H61V37.193Z" fill="#ADE8F4"/>
<path d="M3 41V54H61V40L59.516 41.127C58.7725 41.6912 57.8653 41.9977 56.932 42V42C56.2546 42.0086 55.5907 41.8104 55.0289 41.432C54.467 41.0536 54.0338 40.5129 53.787 39.882C53.6869 39.6249 53.6197 39.3561 53.587 39.082C53.396 39.168 53.2369 39.3118 53.132 39.493C52.7147 40.2432 52.1064 40.8697 51.3687 41.3088C50.6311 41.7478 49.7904 41.9839 48.932 41.993C48.2546 42.0016 47.5907 41.8034 47.0289 41.425C46.467 41.0466 46.0338 40.5059 45.787 39.875C45.6869 39.6179 45.6197 39.3491 45.587 39.075C45.396 39.161 45.2369 39.3048 45.132 39.486C44.7147 40.2362 44.1064 40.8627 43.3687 41.3018C42.6311 41.7408 41.7904 41.9769 40.932 41.986C40.2546 41.9946 39.5907 41.7964 39.0289 41.418C38.467 41.0396 38.0338 40.4989 37.787 39.868C37.6869 39.6109 37.6197 39.3421 37.587 39.068C37.396 39.154 37.2369 39.2978 37.132 39.479C36.7147 40.2292 36.1064 40.8557 35.3687 41.2948C34.6311 41.7338 33.7904 41.9699 32.932 41.979C32.2546 41.9876 31.5907 41.7894 31.0289 41.411C30.467 41.0326 30.0338 40.4919 29.787 39.861C29.6869 39.6039 29.6197 39.3351 29.587 39.061C29.396 39.147 29.2369 39.2908 29.132 39.472C28.7207 40.2247 28.1175 40.855 27.3836 41.299C26.6498 41.743 25.8116 41.9849 24.954 42C24.2745 42.0094 23.6084 41.811 23.0448 41.4314C22.4811 41.0518 22.0468 40.5092 21.8 39.876C21.6999 39.6188 21.6327 39.3501 21.6 39.076C21.4026 39.1609 21.2378 39.3071 21.13 39.493C20.7127 40.2432 20.1044 40.8697 19.3667 41.3088C18.6291 41.7478 17.7884 41.9839 16.93 41.993C16.2526 42.0016 15.5887 41.8034 15.0269 41.425C14.465 41.0466 14.0318 40.5059 13.785 39.875C13.6849 39.6179 13.6177 39.3491 13.585 39.075C13.394 39.161 13.2349 39.3048 13.13 39.486C12.7127 40.2362 12.1044 40.8627 11.3667 41.3018C10.6291 41.7408 9.78839 41.9769 8.93 41.986C8.11713 42.0005 7.32741 41.715 6.71168 41.1842C6.09594 40.6533 5.69734 39.9142 5.592 39.108C5.20755 39.7993 4.59812 40.3381 3.865 40.635L3 41Z" fill="#48CAE4"/>
<path d="M61 42.193C60.3343 42.4233 59.7712 42.8812 59.41 43.486C59.1702 43.9318 58.817 44.3066 58.3862 44.5724C57.9554 44.8382 57.462 44.9857 56.956 45H56.932C56.671 45.0148 56.4117 44.949 56.1893 44.8117C55.9669 44.6743 55.792 44.4719 55.6884 44.2319C55.5848 43.9919 55.5573 43.7258 55.6099 43.4697C55.6624 43.2136 55.7923 42.9799 55.982 42.8L56 42.779C55.6709 42.4789 55.2787 42.2563 54.8524 42.1275C54.426 41.9988 53.9762 41.9671 53.5359 42.035C53.0957 42.1028 52.6763 42.2683 52.3084 42.5194C51.9405 42.7705 51.6336 43.1008 51.41 43.486C51.1702 43.9318 50.817 44.3066 50.3862 44.5724C49.9554 44.8382 49.462 44.9857 48.956 45H48.932C48.671 45.0148 48.4117 44.949 48.1893 44.8117C47.9669 44.6743 47.792 44.4719 47.6884 44.2319C47.5848 43.9919 47.5573 43.7258 47.6099 43.4697C47.6624 43.2136 47.7923 42.9799 47.982 42.8L48 42.779C47.6709 42.4789 47.2787 42.2563 46.8524 42.1275C46.426 41.9988 45.9762 41.9671 45.5359 42.035C45.0957 42.1028 44.6763 42.2683 44.3084 42.5194C43.9405 42.7705 43.6336 43.1008 43.41 43.486C43.1702 43.9318 42.817 44.3066 42.3862 44.5724C41.9554 44.8382 41.462 44.9857 40.956 45H40.932C40.671 45.0148 40.4117 44.949 40.1893 44.8117C39.9669 44.6743 39.792 44.4719 39.6884 44.2319C39.5848 43.9919 39.5573 43.7258 39.6099 43.4697C39.6624 43.2136 39.7923 42.9799 39.982 42.8L40 42.779C39.6709 42.4789 39.2787 42.2563 38.8524 42.1275C38.426 41.9988 37.9762 41.9671 37.5359 42.035C37.0957 42.1028 36.6763 42.2683 36.3084 42.5194C35.9405 42.7705 35.6336 43.1008 35.41 43.486C35.1702 43.9318 34.817 44.3066 34.3862 44.5724C33.9554 44.8382 33.462 44.9857 32.956 45H32.932C32.671 45.0148 32.4117 44.949 32.1893 44.8117C31.9669 44.6743 31.792 44.4719 31.6884 44.2319C31.5848 43.9919 31.5573 43.7258 31.6099 43.4697C31.6624 43.2136 31.7923 42.9799 31.982 42.8L32 42.779C31.6709 42.4789 31.2787 42.2563 30.8524 42.1275C30.426 41.9988 29.9762 41.9671 29.5359 42.035C29.0957 42.1028 28.6763 42.2683 28.3084 42.5194C27.9405 42.7705 27.6336 43.1008 27.41 43.486C27.1702 43.9318 26.817 44.3066 26.3862 44.5724C25.9554 44.8382 25.462 44.9857 24.956 45V45C24.692 45.0161 24.4295 44.9503 24.2043 44.8117C23.9791 44.6731 23.8021 44.4683 23.6976 44.2254C23.593 43.9825 23.566 43.7133 23.6201 43.4544C23.6742 43.1955 23.8069 42.9597 24 42.779C23.6709 42.4789 23.2787 42.2563 22.8524 42.1275C22.426 41.9988 21.9762 41.9671 21.5359 42.035C21.0957 42.1028 20.6763 42.2683 20.3084 42.5194C19.9405 42.7705 19.6336 43.1008 19.41 43.486C19.1702 43.9318 18.817 44.3066 18.3862 44.5724C17.9554 44.8382 17.462 44.9857 16.956 45H16.932C16.671 45.0148 16.4117 44.949 16.1893 44.8117C15.9669 44.6743 15.792 44.4719 15.6884 44.2319C15.5848 43.9919 15.5573 43.7258 15.6099 43.4697C15.6624 43.2136 15.7923 42.9799 15.982 42.8L16 42.779C15.6709 42.4789 15.2787 42.2563 14.8524 42.1275C14.426 41.9988 13.9762 41.9671 13.5359 42.035C13.0957 42.1028 12.6763 42.2683 12.3084 42.5194C11.9405 42.7705 11.6336 43.1008 11.41 43.486C11.1702 43.9318 10.817 44.3066 10.3862 44.5724C9.95536 44.8382 9.46204 44.9857 8.956 45H8.932C8.67099 45.0148 8.41174 44.949 8.18932 44.8117C7.9669 44.6743 7.79205 44.4719 7.68841 44.2319C7.58477 43.9919 7.55735 43.7258 7.60986 43.4697C7.66237 43.2136 7.79228 42.9799 7.982 42.8L8 42.779C7.48923 42.3113 6.83163 42.0359 6.14 42C5.72337 41.9998 5.31087 42.0826 4.92655 42.2434C4.54223 42.4043 4.19378 42.6401 3.90152 42.937C3.60925 43.2339 3.37902 43.586 3.22424 43.9729C3.06946 44.3597 2.99323 44.7734 3 45.19V61H61V42.193Z" fill="#00B4D8"/>
<path d="M3 46V59H61V45L59.516 46.127C58.7725 46.6912 57.8653 46.9977 56.932 47V47C56.2546 47.0086 55.5907 46.8104 55.0289 46.432C54.467 46.0536 54.0338 45.5129 53.787 44.882C53.6869 44.6249 53.6197 44.3561 53.587 44.082C53.396 44.168 53.2369 44.3118 53.132 44.493C52.7147 45.2432 52.1064 45.8697 51.3687 46.3088C50.6311 46.7478 49.7904 46.9839 48.932 46.993C48.2546 47.0016 47.5907 46.8034 47.0289 46.425C46.467 46.0466 46.0338 45.5059 45.787 44.875C45.6869 44.6179 45.6197 44.3491 45.587 44.075C45.396 44.161 45.2369 44.3048 45.132 44.486C44.7147 45.2362 44.1064 45.8627 43.3687 46.3018C42.6311 46.7408 41.7904 46.9769 40.932 46.986C40.2546 46.9946 39.5907 46.7964 39.0289 46.418C38.467 46.0396 38.0338 45.4989 37.787 44.868C37.6869 44.6109 37.6197 44.3421 37.587 44.068C37.396 44.154 37.2369 44.2978 37.132 44.479C36.7147 45.2292 36.1064 45.8557 35.3687 46.2948C34.6311 46.7338 33.7904 46.9699 32.932 46.979C32.2546 46.9876 31.5907 46.7894 31.0289 46.411C30.467 46.0326 30.0338 45.4919 29.787 44.861C29.6869 44.6039 29.6197 44.3351 29.587 44.061C29.396 44.147 29.2369 44.2908 29.132 44.472C28.7207 45.2247 28.1175 45.855 27.3836 46.299C26.6498 46.743 25.8116 46.9849 24.954 47C24.2745 47.0094 23.6084 46.811 23.0448 46.4314C22.4811 46.0518 22.0468 45.5092 21.8 44.876C21.6999 44.6188 21.6327 44.3501 21.6 44.076C21.4026 44.1609 21.2378 44.3071 21.13 44.493C20.7127 45.2432 20.1044 45.8697 19.3667 46.3088C18.6291 46.7478 17.7884 46.9839 16.93 46.993C16.2526 47.0016 15.5887 46.8034 15.0269 46.425C14.465 46.0466 14.0318 45.5059 13.785 44.875C13.6849 44.6179 13.6177 44.3491 13.585 44.075C13.394 44.161 13.2349 44.3048 13.13 44.486C12.7127 45.2362 12.1044 45.8627 11.3667 46.3018C10.6291 46.7408 9.78839 46.9769 8.93 46.986C8.11713 47.0005 7.32741 46.715 6.71168 46.1842C6.09594 45.6533 5.69734 44.9142 5.592 44.108V44.108C5.20755 44.7993 4.59812 45.3381 3.865 45.635L3 46Z" fill="#0096C7"/>
<path d="M61 47V61H3V51.25C2.97777 50.2077 3.34607 49.1948 4.03254 48.4103C4.71901 47.6258 5.67404 47.1263 6.71 47.01C7.51003 46.9585 8.30726 47.1465 9 47.55L8.96 47.58C8.62302 47.7996 8.36628 48.1225 8.22823 48.5003C8.09019 48.8781 8.07827 49.2905 8.19427 49.6757C8.31027 50.0608 8.54793 50.398 8.87167 50.6368C9.1954 50.8755 9.58777 51.0029 9.99 51H10.44C10.8407 50.9906 11.2285 50.8565 11.5494 50.6163C11.8702 50.3761 12.1082 50.0418 12.23 49.66C12.4244 49.1056 12.7393 48.6012 13.1519 48.183C13.5645 47.7649 14.0647 47.4434 14.6164 47.2416C15.1682 47.0398 15.7578 46.9628 16.3428 47.0162C16.9279 47.0695 17.4938 47.2518 18 47.55C17.9886 47.5623 17.975 47.5725 17.96 47.58C17.623 47.7996 17.3663 48.1225 17.2282 48.5003C17.0902 48.8781 17.0783 49.2905 17.1943 49.6757C17.3103 50.0608 17.5479 50.398 17.8717 50.6368C18.1954 50.8755 18.5878 51.0029 18.99 51H19.44C19.8407 50.9906 20.2285 50.8565 20.5494 50.6163C20.8702 50.3761 21.1082 50.0418 21.23 49.66C21.4244 49.1056 21.7393 48.6012 22.1519 48.183C22.5645 47.7649 23.0647 47.4434 23.6164 47.2416C24.1682 47.0398 24.7578 46.9628 25.3428 47.0162C25.9279 47.0695 26.4938 47.2518 27 47.55C26.9886 47.5623 26.975 47.5725 26.96 47.58C26.623 47.7996 26.3663 48.1225 26.2282 48.5003C26.0902 48.8781 26.0783 49.2905 26.1943 49.6757C26.3103 50.0608 26.5479 50.398 26.8717 50.6368C27.1954 50.8755 27.5878 51.0029 27.99 51H28.44C28.8407 50.9906 29.2285 50.8565 29.5494 50.6163C29.8702 50.3761 30.1082 50.0418 30.23 49.66C30.4244 49.1056 30.7393 48.6012 31.1519 48.183C31.5645 47.7649 32.0647 47.4434 32.6164 47.2416C33.1682 47.0398 33.7578 46.9628 34.3428 47.0162C34.9279 47.0695 35.4938 47.2518 36 47.55C35.9886 47.5623 35.975 47.5725 35.96 47.58C35.623 47.7996 35.3663 48.1225 35.2282 48.5003C35.0902 48.8781 35.0783 49.2905 35.1943 49.6757C35.3103 50.0608 35.5479 50.398 35.8717 50.6368C36.1954 50.8755 36.5878 51.0029 36.99 51H37.44C37.8407 50.9906 38.2285 50.8565 38.5494 50.6163C38.8702 50.3761 39.1082 50.0418 39.23 49.66C39.4244 49.1056 39.7393 48.6012 40.1519 48.183C40.5645 47.7649 41.0647 47.4434 41.6164 47.2416C42.1682 47.0398 42.7578 46.9628 43.3428 47.0162C43.9279 47.0695 44.4938 47.2518 45 47.55C44.9886 47.5623 44.975 47.5725 44.96 47.58C44.623 47.7996 44.3663 48.1225 44.2282 48.5003C44.0902 48.8781 44.0783 49.2905 44.1943 49.6757C44.3103 50.0608 44.5479 50.398 44.8717 50.6368C45.1954 50.8755 45.5878 51.0029 45.99 51H46.44C46.8407 50.9906 47.2285 50.8565 47.5494 50.6163C47.8702 50.3761 48.1082 50.0418 48.23 49.66C48.4244 49.1056 48.7393 48.6012 49.1519 48.183C49.5645 47.7649 50.0647 47.4434 50.6164 47.2416C51.1682 47.0398 51.7578 46.9628 52.3428 47.0162C52.9279 47.0695 53.4938 47.2518 54 47.55C53.9886 47.5623 53.975 47.5725 53.96 47.58C53.623 47.7996 53.3663 48.1225 53.2282 48.5003C53.0902 48.8781 53.0783 49.2905 53.1943 49.6757C53.3103 50.0608 53.5479 50.398 53.8717 50.6368C54.1954 50.8755 54.5878 51.0029 54.99 51H55.44C55.8407 50.9906 56.2285 50.8565 56.5494 50.6163C56.8702 50.3761 57.1082 50.0418 57.23 49.66C57.5068 48.8815 58.0178 48.2079 58.6928 47.7316C59.3679 47.2553 60.1738 46.9997 61 47V47Z" fill="#ADE8F4"/>
<path d="M3 51V59H61V49H60.618C60.4055 48.9999 60.195 49.0416 59.9987 49.1229C59.8023 49.2042 59.6239 49.3233 59.4736 49.4736C59.3233 49.6239 59.2042 49.8023 59.1229 49.9987C59.0416 50.195 58.9999 50.4055 59 50.618V50.618C58.7057 51.3205 58.2113 51.9209 57.5783 52.3444C56.9453 52.768 56.2016 52.996 55.44 53H54.99C54.1333 53.0033 53.2998 52.7215 52.6209 52.199C51.942 51.6765 51.4562 50.943 51.24 50.114C51.1592 49.8204 51.1129 49.5183 51.102 49.214C50.64 49.4468 50.2855 49.8486 50.112 50.336C49.8542 51.1075 49.3616 51.7792 48.7032 52.2568C48.0448 52.7345 47.2534 52.9944 46.44 53H45.99C45.1333 53.0033 44.2998 52.7215 43.6209 52.199C42.942 51.6765 42.4562 50.943 42.24 50.114C42.1592 49.8204 42.1129 49.5183 42.102 49.214C41.64 49.4468 41.2855 49.8486 41.112 50.336C40.8542 51.1075 40.3616 51.7792 39.7032 52.2568C39.0448 52.7345 38.2534 52.9944 37.44 53H36.99C36.1333 53.0033 35.2998 52.7215 34.6209 52.199C33.942 51.6765 33.4562 50.943 33.24 50.114C33.1592 49.8204 33.1129 49.5183 33.102 49.214C32.64 49.4468 32.2855 49.8486 32.112 50.336C31.8542 51.1075 31.3616 51.7792 30.7032 52.2568C30.0448 52.7345 29.2534 52.9944 28.44 53H27.99C27.1333 53.0033 26.2998 52.7215 25.6209 52.199C24.942 51.6765 24.4562 50.943 24.24 50.114C24.1592 49.8204 24.1129 49.5183 24.102 49.214C23.64 49.4468 23.2855 49.8486 23.112 50.336C22.8542 51.1075 22.3616 51.7792 21.7032 52.2568C21.0448 52.7345 20.2534 52.9944 19.44 53H18.99C18.1333 53.0033 17.2998 52.7215 16.6209 52.199C15.942 51.6765 15.4562 50.943 15.24 50.114C15.1592 49.8204 15.1129 49.5183 15.102 49.214C14.64 49.4468 14.2855 49.8486 14.112 50.336C13.8542 51.1075 13.3616 51.7792 12.7032 52.2568C12.0448 52.7345 11.2534 52.9944 10.44 53H9.99C8.98377 52.9912 8.01929 52.5966 7.29549 51.8975C6.57169 51.1985 6.14377 50.2483 6.1 49.243C5.81517 49.4118 5.57321 49.6442 5.393 49.922C5.16915 50.2923 4.84538 50.592 4.45887 50.7866C4.07236 50.9812 3.6388 51.0628 3.208 51.022L3 51Z" fill="#48CAE4"/>
<path d="M61 53V61H3V57.25C2.97777 56.2077 3.34607 55.1948 4.03254 54.4103C4.71901 53.6258 5.67404 53.1263 6.71 53.01C7.51003 52.9585 8.30726 53.1465 9 53.55L8.96 53.58C8.62302 53.7996 8.36628 54.1225 8.22823 54.5003C8.09019 54.8781 8.07827 55.2905 8.19427 55.6757C8.31027 56.0608 8.54793 56.398 8.87167 56.6368C9.1954 56.8755 9.58777 57.0029 9.99 57H10.44C10.8407 56.9906 11.2285 56.8565 11.5494 56.6163C11.8702 56.3761 12.1082 56.0418 12.23 55.66C12.4244 55.1056 12.7393 54.6012 13.1519 54.183C13.5645 53.7649 14.0647 53.4434 14.6164 53.2416C15.1682 53.0398 15.7578 52.9628 16.3428 53.0162C16.9279 53.0695 17.4938 53.2518 18 53.55C17.9886 53.5623 17.975 53.5725 17.96 53.58C17.623 53.7996 17.3663 54.1225 17.2282 54.5003C17.0902 54.8781 17.0783 55.2905 17.1943 55.6757C17.3103 56.0608 17.5479 56.398 17.8717 56.6368C18.1954 56.8755 18.5878 57.0029 18.99 57H19.44C19.8407 56.9906 20.2285 56.8565 20.5494 56.6163C20.8702 56.3761 21.1082 56.0418 21.23 55.66C21.4244 55.1056 21.7393 54.6012 22.1519 54.183C22.5645 53.7649 23.0647 53.4434 23.6164 53.2416C24.1682 53.0398 24.7578 52.9628 25.3428 53.0162C25.9279 53.0695 26.4938 53.2518 27 53.55C26.9886 53.5623 26.975 53.5725 26.96 53.58C26.623 53.7996 26.3663 54.1225 26.2282 54.5003C26.0902 54.8781 26.0783 55.2905 26.1943 55.6757C26.3103 56.0608 26.5479 56.398 26.8717 56.6368C27.1954 56.8755 27.5878 57.0029 27.99 57H28.44C28.8407 56.9906 29.2285 56.8565 29.5494 56.6163C29.8702 56.3761 30.1082 56.0418 30.23 55.66C30.4244 55.1056 30.7393 54.6012 31.1519 54.183C31.5645 53.7649 32.0647 53.4434 32.6164 53.2416C33.1682 53.0398 33.7578 52.9628 34.3428 53.0162C34.9279 53.0695 35.4938 53.2518 36 53.55C35.9886 53.5623 35.975 53.5725 35.96 53.58C35.623 53.7996 35.3663 54.1225 35.2282 54.5003C35.0902 54.8781 35.0783 55.2905 35.1943 55.6757C35.3103 56.0608 35.5479 56.398 35.8717 56.6368C36.1954 56.8755 36.5878 57.0029 36.99 57H37.44C37.8407 56.9906 38.2285 56.8565 38.5494 56.6163C38.8702 56.3761 39.1082 56.0418 39.23 55.66C39.4244 55.1056 39.7393 54.6012 40.1519 54.183C40.5645 53.7649 41.0647 53.4434 41.6164 53.2416C42.1682 53.0398 42.7578 52.9628 43.3428 53.0162C43.9279 53.0695 44.4938 53.2518 45 53.55C44.9886 53.5623 44.975 53.5725 44.96 53.58C44.623 53.7996 44.3663 54.1225 44.2282 54.5003C44.0902 54.8781 44.0783 55.2905 44.1943 55.6757C44.3103 56.0608 44.5479 56.398 44.8717 56.6368C45.1954 56.8755 45.5878 57.0029 45.99 57H46.44C46.8407 56.9906 47.2285 56.8565 47.5494 56.6163C47.8702 56.3761 48.1082 56.0418 48.23 55.66C48.4244 55.1056 48.7393 54.6012 49.1519 54.183C49.5645 53.7649 50.0647 53.4434 50.6164 53.2416C51.1682 53.0398 51.7578 52.9628 52.3428 53.0162C52.9279 53.0695 53.4938 53.2518 54 53.55C53.9886 53.5623 53.975 53.5725 53.96 53.58C53.623 53.7996 53.3663 54.1225 53.2282 54.5003C53.0902 54.8781 53.0783 55.2905 53.1943 55.6757C53.3103 56.0608 53.5479 56.398 53.8717 56.6368C54.1954 56.8755 54.5878 57.0029 54.99 57H55.44C55.8407 56.9906 56.2285 56.8565 56.5494 56.6163C56.8702 56.3761 57.1082 56.0418 57.23 55.66C57.5068 54.8815 58.0178 54.2079 58.6928 53.7316C59.3679 53.2553 60.1738 52.9997 61 53V53Z" fill="#00B4D8"/>
<path d="M3 57V61H61V55H60.618C60.4055 54.9999 60.195 55.0416 59.9987 55.1229C59.8023 55.2042 59.6239 55.3233 59.4736 55.4736C59.3233 55.6239 59.2042 55.8023 59.1229 55.9987C59.0416 56.195 58.9999 56.4055 59 56.618V56.618C58.7057 57.3205 58.2113 57.9209 57.5783 58.3444C56.9453 58.768 56.2016 58.996 55.44 59H54.99C54.1333 59.0033 53.2998 58.7215 52.6209 58.199C51.942 57.6765 51.4562 56.943 51.24 56.114C51.1592 55.8204 51.1129 55.5183 51.102 55.214C50.64 55.4468 50.2855 55.8486 50.112 56.336C49.8542 57.1075 49.3616 57.7792 48.7032 58.2568C48.0448 58.7345 47.2534 58.9944 46.44 59H45.99C45.1333 59.0033 44.2998 58.7215 43.6209 58.199C42.942 57.6765 42.4562 56.943 42.24 56.114C42.1592 55.8204 42.1129 55.5183 42.102 55.214C41.64 55.4468 41.2855 55.8486 41.112 56.336C40.8542 57.1075 40.3616 57.7792 39.7032 58.2568C39.0448 58.7345 38.2534 58.9944 37.44 59H36.99C36.1333 59.0033 35.2998 58.7215 34.6209 58.199C33.942 57.6765 33.4562 56.943 33.24 56.114C33.1592 55.8204 33.1129 55.5183 33.102 55.214C32.64 55.4468 32.2855 55.8486 32.112 56.336C31.8542 57.1075 31.3616 57.7792 30.7032 58.2568C30.0448 58.7345 29.2534 58.9944 28.44 59H27.99C27.1333 59.0033 26.2998 58.7215 25.6209 58.199C24.942 57.6765 24.4562 56.943 24.24 56.114C24.1592 55.8204 24.1129 55.5183 24.102 55.214C23.64 55.4468 23.2855 55.8486 23.112 56.336C22.8542 57.1075 22.3616 57.7792 21.7032 58.2568C21.0448 58.7345 20.2534 58.9944 19.44 59H18.99C18.1333 59.0033 17.2998 58.7215 16.6209 58.199C15.942 57.6765 15.4562 56.943 15.24 56.114C15.1592 55.8204 15.1129 55.5183 15.102 55.214C14.64 55.4468 14.2855 55.8486 14.112 56.336C13.8542 57.1075 13.3616 57.7792 12.7032 58.2568C12.0448 58.7345 11.2534 58.9944 10.44 59H9.99C8.98377 58.9912 8.01929 58.5966 7.29549 57.8975C6.57169 57.1985 6.14377 56.2483 6.1 55.243C5.81517 55.4118 5.57321 55.6442 5.393 55.922C5.16915 56.2923 4.84538 56.592 4.45887 56.7866C4.07236 56.9812 3.6388 57.0628 3.208 57.022L3 57Z" fill="#0096C7"/>
<path d="M32 17C34.2091 17 36 15.2091 36 13C36 10.7909 34.2091 9 32 9C29.7909 9 28 10.7909 28 13C28 15.2091 29.7909 17 32 17Z" fill="#EF5350"/>
<path d="M58 16C57.523 16.0033 57.0538 16.1213 56.632 16.344C56.255 15.5119 55.6042 14.8342 54.7881 14.4239C53.9719 14.0136 53.0398 13.8954 52.1471 14.0891C51.2544 14.2828 50.455 14.7767 49.8824 15.4884C49.3097 16.2 48.9982 17.0865 49 18H47C45.9391 18 44.9217 18.4214 44.1716 19.1716C43.4214 19.9217 43 20.9391 43 22H53C54.009 21.9984 54.9797 21.613 55.715 20.922C56.0392 21.3072 56.4553 21.6044 56.9248 21.7861C57.3944 21.9678 57.9021 22.0282 58.4012 21.9617C58.9002 21.8952 59.3744 21.7039 59.78 21.4055C60.1855 21.1072 60.5092 20.7113 60.7212 20.2547C60.9332 19.798 61.0266 19.2953 60.9928 18.793C60.959 18.2906 60.7991 17.8049 60.5278 17.3808C60.2566 16.9567 59.8827 16.6078 59.4409 16.3664C58.999 16.1251 58.5035 15.999 58 16Z" fill="#ADE8F4"/>
<path d="M55.715 20.922C56.1758 21.47 56.8177 21.8347 57.5244 21.9499C58.2311 22.0651 58.9556 21.9231 59.5665 21.5498C60.1775 21.1765 60.6344 20.5965 60.8543 19.9151C61.0741 19.2337 61.0425 18.496 60.765 17.836C60.614 17.8408 60.4655 17.8756 60.3281 17.9384C60.1908 18.0013 60.0673 18.0909 59.965 18.202C59.7893 18.3977 59.5516 18.5272 59.2919 18.5687C59.0321 18.6102 58.766 18.5612 58.538 18.43C58.0748 18.1476 57.5425 17.9988 57 18C56.914 18 56.828 18 56.744 18.012C56.3936 18.031 56.0434 17.9704 55.7197 17.8348C55.396 17.6992 55.1072 17.4921 54.875 17.229C54.5041 16.84 54.0579 16.5305 53.5637 16.3192C53.0695 16.108 52.5375 15.9994 52 16C51.502 15.9993 51.0084 16.094 50.546 16.279C50.1538 16.4323 49.7311 16.4908 49.312 16.45C49.1059 16.9408 48.9998 17.4677 49 18H47C45.9391 18 44.9217 18.4214 44.1716 19.1716C43.4214 19.9217 43 20.9391 43 22H53C54.009 21.9984 54.9797 21.613 55.715 20.922V20.922Z" fill="#48CAE4"/>
<path d="M17 17C16.523 17.0033 16.0538 17.1213 15.632 17.344C15.255 16.5119 14.6042 15.8342 13.7881 15.4239C12.9719 15.0136 12.0398 14.8954 11.1471 15.0891C10.2544 15.2828 9.45504 15.7767 8.88235 16.4884C8.30967 17.2 7.99824 18.0865 8 19H7C5.93913 19 4.92172 19.4214 4.17157 20.1716C3.42143 20.9217 3 21.9391 3 23H12C13.009 22.9984 13.9797 22.613 14.715 21.922C15.0392 22.3072 15.4553 22.6044 15.9248 22.7861C16.3944 22.9678 16.9021 23.0282 17.4012 22.9617C17.9002 22.8952 18.3744 22.7039 18.78 22.4055C19.1855 22.1072 19.5092 21.7113 19.7212 21.2547C19.9332 20.798 20.0266 20.2953 19.9928 19.793C19.959 19.2906 19.7991 18.8049 19.5278 18.3808C19.2566 17.9567 18.8827 17.6078 18.4409 17.3664C17.999 17.1251 17.5035 16.999 17 17Z" fill="#ADE8F4"/>
<path d="M14.715 21.922C15.1758 22.47 15.8177 22.8347 16.5244 22.9499C17.2311 23.0651 17.9556 22.9231 18.5665 22.5498C19.1775 22.1765 19.6344 21.5965 19.8543 20.9151C20.0741 20.2337 20.0425 19.496 19.765 18.836C19.614 18.8408 19.4655 18.8756 19.3281 18.9384C19.1908 19.0013 19.0673 19.0909 18.965 19.202C18.7893 19.3977 18.5516 19.5272 18.2919 19.5687C18.0321 19.6102 17.766 19.5612 17.538 19.43C17.0748 19.1476 16.5425 18.9988 16 19C15.914 19 15.828 19 15.744 19.012C15.3936 19.031 15.0434 18.9704 14.7197 18.8348C14.396 18.6992 14.1072 18.4921 13.875 18.229C13.5041 17.84 13.0579 17.5305 12.5637 17.3192C12.0695 17.108 11.5375 16.9994 11 17C10.502 16.9993 10.0084 17.094 9.546 17.279C9.15384 17.4323 8.73106 17.4908 8.312 17.45C8.10591 17.9408 7.99983 18.4677 8 19H7C5.93913 19 4.92172 19.4214 4.17157 20.1716C3.42143 20.9217 3 21.9391 3 23H12C13.009 22.9984 13.9797 22.613 14.715 21.922V21.922Z" fill="#48CAE4"/>
<path d="M16 10C15.7348 9.99996 15.4805 9.89456 15.293 9.70701C14.9498 9.36468 14.4848 9.17244 14 9.17244C13.5152 9.17244 13.0502 9.36468 12.707 9.70701C12.5195 9.89449 12.2652 9.9998 12 9.9998C11.7348 9.9998 11.4805 9.89449 11.293 9.70701C10.9498 9.36468 10.4848 9.17244 10 9.17244C9.51523 9.17244 9.05024 9.36468 8.707 9.70701C8.61475 9.80252 8.50441 9.87871 8.38241 9.93112C8.2604 9.98353 8.12918 10.0111 7.9964 10.0123C7.86362 10.0134 7.73194 9.98812 7.60905 9.93784C7.48615 9.88756 7.3745 9.8133 7.28061 9.71941C7.18671 9.62552 7.11246 9.51387 7.06218 9.39097C7.0119 9.26807 6.9866 9.13639 6.98775 9.00361C6.9889 8.87083 7.01649 8.73961 7.0689 8.61761C7.12131 8.49561 7.19749 8.38526 7.293 8.29302C7.90164 7.68611 8.69646 7.3012 9.55 7.20002C10.4035 7.09883 11.2663 7.28724 12 7.73502C12.7337 7.28724 13.5965 7.09883 14.45 7.20002C15.3035 7.3012 16.0984 7.68611 16.707 8.29302C16.8468 8.43287 16.942 8.61103 16.9806 8.80498C17.0192 8.99894 16.9993 9.19997 16.9237 9.38267C16.848 9.56537 16.7199 9.72153 16.5555 9.83142C16.391 9.9413 16.1978 9.99997 16 10V10Z" fill="#48CAE4"/>
<path d="M58 10C57.7348 9.99996 57.4805 9.89456 57.293 9.70701C56.9498 9.36468 56.4848 9.17244 56 9.17244C55.5152 9.17244 55.0502 9.36468 54.707 9.70701C54.5195 9.89449 54.2652 9.9998 54 9.9998C53.7348 9.9998 53.4805 9.89449 53.293 9.70701C52.9498 9.36468 52.4848 9.17244 52 9.17244C51.5152 9.17244 51.0502 9.36468 50.707 9.70701C50.5184 9.88917 50.2658 9.98997 50.0036 9.98769C49.7414 9.98541 49.4906 9.88024 49.3052 9.69483C49.1198 9.50943 49.0146 9.25861 49.0123 8.99642C49.01 8.73422 49.1108 8.48162 49.293 8.29302C49.9016 7.68611 50.6965 7.3012 51.55 7.20002C52.4035 7.09883 53.2663 7.28724 54 7.73502C54.7337 7.28724 55.5965 7.09883 56.45 7.20002C57.3035 7.3012 58.0984 7.68611 58.707 8.29302C58.8468 8.43287 58.942 8.61103 58.9806 8.80498C59.0191 8.99894 58.9993 9.19997 58.9237 9.38267C58.848 9.56537 58.7199 9.72153 58.5555 9.83142C58.391 9.9413 58.1977 9.99997 58 10V10Z" fill="#48CAE4"/>
</svg>
