<?xml version="1.0" encoding="UTF-8" standalone="no"?> <svg xmlns="http://www.w3.org/2000/svg" viewBox="0 0 64 64"><g id="sailboat-boat-yacht-ship-travel"><polygon points="52 55 11 55 7 45 61 45 52 55" style="fill:#ff5023"/><path d="M55,40.21V41H34V5l.85.48A40.011,40.011,0,0,1,54.87,37C54.96,38.06,55,39.13,55,40.21Z" style="fill:#ffcd00"/><path d="M34,37v4H55v-.79c0-1.08-.04-2.15-.13-3.21Z" style="fill:#ff9811"/><polygon points="30 7 30 39 12 39 30 7" style="fill:#ffcd00"/><polygon points="12 39 30 39 30 35 14.25 35 12 39" style="fill:#ff9811"/><path d="M34,37V5a2,2,0,0,0-4,0V45h4V37Z" style="fill:#2488ff"/><path d="M3,51c3.22,0,3.22,4,6.44,4s3.221-4,6.442-4,3.221,4,6.443,4,3.221-4,6.442-4,3.222,4,6.444,4,3.221-4,6.441-4,3.223,4,6.446,4,3.226-4,6.451-4S57.775,55,61,55v6c-3.225,0-3.225-4-6.451-4s-3.225,4-6.451,4-3.223-4-6.446-4-3.22,4-6.441,4-3.222-4-6.444-4-3.221,4-6.442,4-3.222-4-6.443-4-3.221,4-6.442,4S6.22,57,3,57Z" style="fill:#2488ff"/><path d="M61,60c-1.082,0-1.608-.588-2.447-1.628C57.7,57.315,56.64,56,54.549,56s-3.152,1.315-4,2.372C49.708,59.412,49.181,60,48.1,60s-1.608-.588-2.446-1.627C44.8,57.315,43.742,56,41.652,56s-3.148,1.316-4,2.373C36.816,59.412,36.29,60,35.211,60s-1.606-.588-2.443-1.627c-.851-1.058-1.911-2.373-4-2.373s-3.15,1.315-4,2.373C23.93,59.412,23.4,60,22.324,60s-1.605-.588-2.441-1.627c-.852-1.057-1.911-2.373-4-2.373s-3.149,1.315-4,2.373C11.045,59.412,10.52,60,9.439,60s-1.6-.588-2.44-1.627C6.147,57.316,5.089,56,3,56a1,1,0,0,0,0,2c1.078,0,1.6.588,2.44,1.627C6.292,60.684,7.351,62,9.439,62s3.15-1.316,4-2.373C14.276,58.588,14.8,58,15.882,58s1.6.588,2.443,1.627c.851,1.058,1.91,2.373,4,2.373s3.15-1.315,4-2.373C27.162,58.588,27.687,58,28.768,58s1.605.588,2.443,1.627c.851,1.058,1.91,2.373,4,2.373s3.148-1.316,4-2.373C40.047,58.588,40.573,58,41.652,58s1.607.588,2.445,1.627c.851,1.058,1.911,2.373,4,2.373s3.152-1.315,4-2.373C52.94,58.588,53.468,58,54.549,58s1.608.588,2.447,1.628C57.849,60.685,58.909,62,61,62a1,1,0,0,0,0-2Z" style="fill:#231f20"/><path d="M61,54c-1.08,0-1.61-.59-2.45-1.63a9.392,9.392,0,0,0-1.42-1.49l4.62-5.22A1,1,0,0,0,61,44H35V42H55a1,1,0,0,0,1-1v-.79A41.089,41.089,0,0,0,35.34,4.62l-.41-.24A3,3,0,0,0,29,5V6.74L11.13,38.51a.975.975,0,0,0,.01.99A.987.987,0,0,0,12,40H29v4H7a1,1,0,0,0-.91,1.41l3.79,8.52a2.127,2.127,0,0,1-.44.07C8.36,54,7.83,53.41,7,52.37,6.15,51.32,5.09,50,3,50a1,1,0,0,0,0,2c1.08,0,1.6.59,2.44,1.63S7.35,56,9.44,56s3.15-1.32,4-2.37S14.8,52,15.88,52s1.61.59,2.45,1.63S20.24,56,22.32,56s3.15-1.32,4-2.37S27.69,52,28.77,52s1.6.59,2.44,1.63,1.91,2.37,4,2.37,3.15-1.32,4-2.37S40.57,52,41.65,52s1.61.59,2.45,1.63S46.01,56,48.1,56s3.15-1.32,4-2.37S53.47,52,54.55,52s1.61.59,2.45,1.63S58.91,56,61,56a1,1,0,0,0,0-2ZM35,6.73A39.081,39.081,0,0,1,53.75,36H35ZM35,38H53.92c.04.66.08,1.33.08,2H35ZM31,5a1,1,0,0,1,2,0V44H31ZM13.71,38,29,10.82V34H19a1,1,0,0,0,0,2H29v2ZM55.2,50.05a4.509,4.509,0,0,0-.65-.05c-2.09,0-3.15,1.32-4,2.37S49.18,54,48.1,54s-1.61-.59-2.45-1.63S43.74,50,41.65,50s-3.15,1.32-4,2.37C36.82,53.41,36.29,54,35.21,54s-1.6-.59-2.44-1.63S30.86,50,28.77,50s-3.15,1.32-4,2.37S23.4,54,22.32,54s-1.6-.59-2.44-1.63S17.97,50,15.88,50s-3.15,1.32-4,2.37c-.12.15-.22.27-.33.4L8.54,46H58.78Z" style="fill:#231f20"/></g></svg>